<svg width="577" height="493" viewBox="0 0 577 493" fill="none" xmlns="http://www.w3.org/2000/svg">
<path d="M401.479 71.6951C423.556 65.2509 472.891 51.4558 499.431 109.646C459.063 131.137 432.799 137.038 401.479 71.6951Z" fill="#B1B1B1"/>
<path d="M401.572 72.046C412.924 68.7329 424.473 65.9777 436.368 65.9407C451.88 65.8927 466.824 70.9563 478.45 81.3864C487.191 89.2282 493.603 99.2904 498.466 109.905L498.865 109.474C491.796 113.375 484.478 116.807 476.96 119.75C470.831 122.213 464.333 123.632 457.737 123.948C451.416 124.092 445.166 122.589 439.599 119.589C432.842 115.949 427.22 110.491 422.404 104.576C414.246 94.5647 408.019 83.0389 402.446 71.4382C402.194 70.9123 400.327 71.5611 400.516 71.956C405.673 82.693 411.405 93.2911 418.642 102.784C423.622 109.315 429.455 115.454 436.605 119.613C442.147 122.857 448.419 124.646 454.838 124.811C461.68 124.814 468.471 123.616 474.9 121.271C483.618 118.316 491.891 114.133 500.002 109.819C500.102 109.766 500.482 109.569 500.402 109.388C492.41 91.9464 479.872 76.1828 461.5 69.2128C448.155 64.1502 433.52 64.2532 419.649 66.8135C413.489 68.0129 407.393 69.5251 401.387 71.3442C401.201 71.3982 400.403 71.6341 400.515 71.954C400.628 72.2739 401.375 72.104 401.572 72.046Z" fill="black"/>
<path d="M449.083 78.9781C461.507 78.7451 472.441 78.7931 491.346 95.0196L449.083 78.9781Z" fill="#B1B1B1"/>
<path d="M491.346 95.0246C491.124 95.2855 486.644 91.6955 481.782 88.6684C480.583 87.8796 479.317 87.2158 478.168 86.5219C476.979 85.9031 475.871 85.3113 474.897 84.8444L472.499 83.7637L471.49 83.3768C471.402 83.3528 470.08 82.713 468.05 82.0122C465.586 81.1622 463.053 80.529 460.479 80.1197C457.673 79.6789 454.818 79.5119 452.673 79.38C450.528 79.248 449.088 79.145 449.086 78.9801C449.084 78.8151 450.511 78.6382 452.672 78.5022C455.333 78.3222 458.004 78.3342 460.663 78.5382C463.375 78.7796 466.058 79.2817 468.673 80.0378C469.918 80.3965 471.145 80.818 472.347 81.3004L473.388 81.7503L475.835 82.9979C476.82 83.5338 477.933 84.2066 479.116 84.9174C480.255 85.6992 481.514 86.463 482.671 87.3517C487.405 90.7848 491.53 94.8176 491.346 95.0246Z" fill="black"/>
<path d="M569.727 342.025C551.388 364.122 536.562 388.917 525.773 415.536C516.163 439.188 482.681 438.85 473.855 414.891L436.04 309.214L544.321 297.06C569.192 293.684 585.697 322.648 569.727 342.025Z" fill="#B1B1B1"/>
<path d="M568.826 341.995C551.072 363.505 536.575 387.51 525.8 413.24C523.849 417.926 521.699 422.212 517.899 425.69C514.816 428.506 511.1 430.536 507.067 431.609C500.799 433.308 494.127 432.666 488.298 429.804C482.468 426.941 477.878 422.053 475.385 416.053C474.602 414.214 473.987 412.295 473.313 410.414L467.242 393.45L450.009 345.293L437.528 310.418L437.005 308.956L435.913 309.766L460.599 306.996L499.958 302.578L534.176 298.739L543.339 297.71C545.952 297.345 548.598 297.292 551.223 297.55C554.764 297.997 558.177 299.158 561.256 300.964C573.566 308.157 578.807 324.564 571.996 337.29C571.095 338.957 570.035 340.532 568.831 341.995C568.531 342.367 569.091 342.564 569.361 342.589C569.6 342.604 569.838 342.563 570.059 342.471C570.28 342.378 570.476 342.236 570.633 342.055C572.961 339.253 574.71 336.016 575.779 332.533C576.847 329.049 577.215 325.388 576.861 321.761C576.102 314.932 572.943 308.595 567.949 303.879C562.688 298.936 555.734 296.198 548.518 296.229C545.191 296.367 541.874 296.681 538.58 297.17L506.568 300.763L466.06 305.31L437.801 308.481L436.172 308.664C435.898 308.695 434.907 308.992 435.08 309.475L446.393 341.088L464.106 390.586L470.755 409.166L472.706 414.618C474.072 418.571 476.268 422.184 479.148 425.215C491.421 437.872 513.472 435.712 523.511 421.408C524.879 419.41 526.019 417.263 526.907 415.01C528.257 411.712 529.663 408.439 531.125 405.189C533.985 398.869 537.079 392.663 540.406 386.57C547.282 374.021 555.103 362.015 563.801 350.656C566.026 347.745 568.302 344.876 570.631 342.048C570.931 341.678 570.37 341.479 570.101 341.455C569.861 341.44 569.621 341.482 569.4 341.575C569.179 341.669 568.983 341.813 568.826 341.995Z" fill="black"/>
<path d="M486.617 375.581C486.425 375.808 482.531 372.794 479.054 369.238C477.29 367.488 475.638 365.613 474.406 364.172C473.194 362.714 472.39 361.696 472.351 361.626C472.312 361.556 471.54 360.514 470.527 358.911C469.491 357.322 468.213 355.172 467.066 352.966C464.7 348.58 463.176 343.869 463.462 343.769C463.762 343.655 465.778 348.082 468.444 352.167C469.742 354.229 471.13 356.242 472.234 357.731C473.318 359.231 474.121 360.212 474.158 360.281C474.195 360.35 474.93 361.381 476.027 362.881C477.146 364.36 478.637 366.304 480.223 368.16C483.341 371.929 486.829 375.337 486.617 375.581Z" fill="white"/>
<path d="M472.993 318.548C472.964 318.324 492.55 313.44 514.482 316.088C521.308 316.88 527.992 318.129 527.952 318.416C527.909 318.744 521.152 318.054 514.342 317.671C491.715 316.302 473.077 319.222 472.993 318.548Z" fill="white"/>
<path d="M468.105 331.918C468.222 331.218 485.71 333.613 505.982 346.684C511.664 350.315 516.971 354.362 516.796 354.614C516.621 354.866 511.002 351.298 505.164 348.048C478.561 333.091 467.975 332.691 468.105 331.918Z" fill="white"/>
<path d="M498.445 249.462C496.206 291.741 480.963 330.572 456.324 363.04C409.309 425.006 328.096 463.755 237.966 458.972C226.031 458.343 214.148 456.949 202.392 454.797C183.548 451.363 165.122 445.937 147.423 438.611C105.339 417.663 76.4872 379.851 73.3495 336.927C28.5226 313.818 -0.753252 271.397 1.03191 224.317C1.04989 223.78 1.07786 223.251 1.10683 222.703C1.1398 222.095 1.18176 221.488 1.22371 220.88C4.74908 165.63 30.5116 116.395 70.3356 79.7468C115.544 38.1285 178.885 12.7396 248.406 13.1905C252.758 13.2111 257.141 13.3404 261.556 13.5784C294.376 15.2457 326.627 22.8155 356.766 35.9251C444.595 74.3374 503.343 156.983 498.445 249.462Z" fill="url(#paint0_linear_1150_7665)"/>
<path d="M252.725 459.865C247.802 459.865 242.873 459.735 237.94 459.475C225.983 458.842 214.08 457.445 202.301 455.292C183.424 451.848 164.964 446.413 147.231 439.076C103.833 417.476 76.0654 379.43 72.8717 337.246C26.5114 313.241 -1.19903 269.987 0.532192 224.298C0.551172 223.759 0.579143 223.228 0.608114 222.677C0.640081 222.066 0.683036 221.456 0.724993 220.845C4.1225 167.602 28.7232 117.36 69.9967 79.378C93.3116 58.0312 120.493 41.347 150.075 30.2257C181.479 18.3145 214.827 12.3678 248.409 12.6906C252.692 12.7116 257.123 12.8416 261.581 13.0785C294.464 14.732 326.777 22.3167 356.965 35.4673C400.802 54.6389 437.395 84.6095 462.791 122.143C488.818 160.603 501.319 204.64 498.943 249.492L498.444 249.466L498.943 249.492C496.775 290.429 482.175 329.799 456.722 363.346C433.182 394.372 400.952 419.668 363.518 436.498C328.641 452.003 290.887 459.965 252.725 459.865ZM246.564 13.6844C213.723 13.5918 181.142 19.5148 150.431 31.1605C120.967 42.2367 93.8945 58.8537 70.673 80.1148C29.5903 117.921 5.10249 167.924 1.72197 220.912C1.68001 221.519 1.63805 222.124 1.60609 222.729C1.57712 223.275 1.54914 223.8 1.53116 224.334C-0.189066 269.713 27.4175 312.687 73.577 336.486C73.6531 336.525 73.7179 336.583 73.7651 336.655C73.8123 336.726 73.8404 336.808 73.8467 336.894C76.9136 378.833 104.501 416.693 147.646 438.166C165.304 445.468 183.685 450.879 202.481 454.307C214.217 456.452 226.078 457.845 237.992 458.475C281.407 460.774 324.673 452.861 363.108 435.581C400.391 418.82 432.487 393.631 455.926 362.738C481.258 329.347 495.785 290.172 497.946 249.435C500.31 204.803 487.868 160.978 461.964 122.699C436.674 85.3263 400.228 55.4787 356.566 36.383C326.488 23.2806 294.293 15.724 261.53 14.0772C257.088 13.8413 252.673 13.7113 248.405 13.6904C247.791 13.6864 247.175 13.6844 246.564 13.6844Z" fill="black"/>
<path d="M456.324 363.04C409.309 425.006 328.096 463.755 237.966 458.972C226.031 458.343 214.148 456.949 202.392 454.797C183.548 451.363 165.122 445.937 147.423 438.611C105.339 417.663 76.4872 379.851 73.3495 336.927C28.5226 313.818 -0.753252 271.397 1.03191 224.317C1.04989 223.78 1.07786 223.251 1.10683 222.703C1.1398 222.095 1.18176 221.488 1.22371 220.88C4.74908 165.63 30.5116 116.395 70.3356 79.7468C75.4223 98.7525 81.9366 123.69 88.7886 151.552C102.874 208.746 159.677 215.734 190.172 216.644C250.975 218.443 281.189 282.914 320.264 348.629C348.035 395.337 414.074 384.78 456.324 363.04Z" fill="white"/>
<path d="M202.391 455.302H202.333C183.154 453.131 164.498 447.638 147.201 439.068C103.746 417.428 75.9446 379.262 72.8448 336.973C72.8352 336.841 72.8784 336.71 72.965 336.61C73.0515 336.509 73.1743 336.448 73.3064 336.438C73.372 336.432 73.4381 336.44 73.5008 336.46C73.5635 336.48 73.6215 336.513 73.6713 336.556C73.7212 336.599 73.7619 336.651 73.791 336.711C73.8201 336.77 73.837 336.834 73.8408 336.9C76.9156 378.833 104.509 416.693 147.647 438.172C164.84 446.691 183.384 452.151 202.448 454.307C202.581 454.315 202.705 454.374 202.793 454.474C202.882 454.573 202.927 454.703 202.919 454.835C202.912 454.968 202.852 455.092 202.753 455.18C202.654 455.269 202.524 455.314 202.391 455.307V455.302Z" fill="black"/>
<path d="M373.249 251.489C397.289 260.911 420.454 283.107 440.779 331.995C394.186 356.388 339.549 362.587 310.569 290.353" fill="url(#paint1_linear_1150_7665)"/>
<path d="M310.574 290.353C310.847 290.769 311.077 291.211 311.261 291.673L313.008 295.482C314.524 298.757 316.822 303.38 319.93 308.721C323.514 314.78 327.713 320.454 332.458 325.653L333.432 326.73L334.48 327.75L336.594 329.815C337.294 330.524 338.093 331.124 338.841 331.788C339.611 332.429 340.351 333.116 341.157 333.727L343.602 335.537C344.015 335.837 344.411 336.156 344.839 336.437L346.132 337.26C346.997 337.805 347.852 338.369 348.729 338.9L351.436 340.365C351.891 340.602 352.335 340.865 352.798 341.083L354.196 341.717C355.135 342.127 356.054 342.585 357.006 342.958C358.929 343.653 360.816 344.429 362.778 344.938C366.582 346.066 370.482 346.844 374.427 347.26C381.486 347.961 388.604 347.763 395.613 346.673C400.662 345.881 405.651 344.745 410.546 343.274C414.174 342.214 416.304 341.401 416.56 341.335C423.409 339.008 430.092 336.218 436.562 332.983L438.714 331.901L439.421 331.548C439.476 331.537 439.473 331.509 439.445 331.459C438.817 329.993 438.17 328.48 437.502 326.921C436.136 323.593 434.478 320.197 432.836 316.656C429.335 309.322 425.418 302.195 421.105 295.309C416.81 288.457 411.956 281.973 406.594 275.921C401.923 270.659 396.719 265.895 391.066 261.707C387.038 258.795 382.785 256.207 378.347 253.967C376.749 253.141 375.432 252.613 374.568 252.181C374.107 251.996 373.665 251.765 373.25 251.493C373.733 251.604 374.204 251.764 374.656 251.969C375.555 252.333 376.901 252.794 378.541 253.557C383.095 255.649 387.457 258.138 391.575 260.995C397.376 265.106 402.722 269.825 407.521 275.072C413.029 281.101 418.021 287.583 422.443 294.45C426.875 301.339 430.905 308.48 434.511 315.837C436.2 319.385 437.907 322.792 439.312 326.125L441.556 331.235L442.04 332.341C442.062 332.384 442.079 332.429 442.091 332.475L441.957 332.544L441.69 332.68L441.158 332.953L439.648 333.727L437.485 334.838C430.96 338.176 424.213 341.058 417.29 343.462C417.03 343.529 414.863 344.34 411.163 345.389C406.163 346.849 401.068 347.964 395.915 348.726C388.729 349.777 381.437 349.908 374.218 349.115C370.17 348.646 366.174 347.804 362.28 346.601C360.272 346.055 358.34 345.239 356.376 344.502C355.403 344.108 354.465 343.628 353.508 343.194L352.077 342.526C351.602 342.3 351.153 342.026 350.691 341.774L347.936 340.239C347.045 339.684 346.177 339.095 345.298 338.526L343.989 337.667C343.555 337.377 343.154 337.043 342.736 336.734L340.264 334.85C339.45 334.217 338.706 333.506 337.93 332.842C337.176 332.154 336.37 331.53 335.671 330.801L333.551 328.669L332.503 327.614L331.53 326.508C326.81 321.178 322.667 315.364 319.171 309.161C316.734 304.785 314.537 300.28 312.592 295.664C311.927 293.982 311.403 292.665 311.048 291.76C310.843 291.308 310.685 290.836 310.574 290.353Z" fill="black"/>
<path d="M109.549 247.72C109.449 247.72 109.352 247.69 109.269 247.634C109.187 247.577 109.123 247.498 109.086 247.405C109.049 247.313 109.041 247.211 109.062 247.113C109.083 247.016 109.133 246.927 109.205 246.858C120.312 236.369 133.029 227.734 146.873 221.282C146.932 221.247 146.999 221.224 147.068 221.216C147.137 221.208 147.207 221.214 147.273 221.234C147.34 221.255 147.401 221.289 147.454 221.334C147.506 221.38 147.549 221.436 147.579 221.499C147.608 221.561 147.625 221.63 147.626 221.699C147.628 221.769 147.616 221.838 147.589 221.902C147.563 221.967 147.523 222.025 147.473 222.073C147.423 222.121 147.364 222.158 147.298 222.182C133.552 228.587 120.923 237.161 109.894 247.575C109.802 247.666 109.678 247.718 109.549 247.72Z" fill="black"/>
<path d="M497.47 249.544C494.679 300.215 472.554 347.831 437.213 383.997C404.883 417.083 362.858 439.902 318.072 450.902C265.663 463.636 210.675 460.747 159.886 442.59C153.495 440.404 147.298 437.688 141.358 434.47C136.283 431.627 131.376 428.493 126.66 425.085C117.359 418.388 108.923 410.564 101.544 401.792C87.3789 384.872 77.6589 364.284 74.8758 342.304C74.629 340.354 75.0965 337.106 73.4123 336.037C70.8359 334.407 68.0078 333.114 65.3875 331.538C60.4297 328.568 55.6479 325.313 51.0663 321.789C42.0242 314.859 33.8825 306.826 26.8302 297.876C13.2372 280.534 4.29542 259.637 2.33943 237.606C1.27752 225.663 2.43933 213.547 4.32339 201.743C6.25358 189.663 9.28411 177.786 13.3771 166.26C21.578 143.385 33.661 122.098 49.0943 103.335C79.8626 65.7628 122.512 38.8923 168.881 25.0672C221.026 9.7255 276.535 10.1244 328.455 26.2138C372.978 40.055 413.962 65.6558 444.643 100.936C472.962 133.498 491.853 174.003 496.569 217.052C497.736 227.841 498.037 238.706 497.468 249.543C497.418 250.509 499.376 250.21 499.418 249.379C501.678 205.226 489.215 161.498 464.999 124.608C440.212 86.8469 404.219 57.1362 363.439 38.0615C313.722 14.808 256.885 7.27915 202.749 16.0087C154.474 23.7945 108.26 44.7007 71.762 77.4595C35.2056 110.269 9.53802 154.671 2.12865 203.474C0.357472 215.14 -0.65149 227.047 0.474351 238.827C1.56318 250.008 4.36373 260.955 8.7778 271.283C17.5887 291.983 32.3366 309.746 50.1622 323.327C54.7668 326.83 59.5698 330.064 64.5474 333.013C65.864 333.793 67.1917 334.554 68.5303 335.295C69.7171 335.952 71.8708 336.595 72.4403 337.895C72.8119 338.745 72.674 340.48 72.7799 341.416C72.9651 343.049 73.1875 344.678 73.4472 346.302C75.2115 357.155 78.5744 367.686 83.426 377.552C93.3847 397.898 109.073 415.041 127.617 427.903C132.631 431.374 137.847 434.542 143.238 437.39C149.359 440.431 155.705 442.996 162.219 445.062C175.805 449.726 189.736 453.317 203.884 455.802C230.477 460.488 257.606 461.311 284.434 458.246C331.299 452.868 376.839 435.282 414.255 406.366C452.697 376.654 481.814 335.098 493.674 287.714C496.802 275.147 498.727 262.311 499.423 249.378C499.474 248.415 497.516 248.713 497.47 249.544Z" fill="black"/>
<path d="M329.03 45.1155C324.62 51.2858 318.672 56.3074 312.492 60.6362C273.332 88.0765 220.027 134.821 183.156 173.774C143.759 215.391 87.1161 172.567 119.964 111.327C145.258 64.1562 190.853 21.4782 237.449 7.4031C243.716 5.52123 250.084 3.99391 256.523 2.82838C267.451 0.849938 279.954 -0.29974 291.208 1.18185C300.754 2.38244 310.08 4.94088 318.903 8.77972C323.798 10.9481 328.018 13.3204 331.061 17.7182C331.154 17.8432 331.247 17.9681 331.33 18.1021C337.053 26.7557 334.767 37.0898 329.03 45.1155Z" fill="white"/>
<path d="M328.144 45.1426C321.657 54.129 312.353 59.9694 303.552 66.4066C295.309 72.4359 287.226 78.6842 279.255 85.0694C261.574 99.2364 244.408 114.061 227.701 129.373C219.43 136.953 211.281 144.664 203.254 152.507C195.723 159.878 188.514 167.551 181.086 175.021C170.669 185.498 156.043 192.424 141.12 188.925C127.966 185.841 117.902 175.476 113.653 162.846C107.895 145.731 112.505 127.03 120.727 111.548C131.269 91.9227 144.531 73.8875 160.118 57.978C175.302 42.3593 192.674 28.5862 211.985 18.418C221.012 13.6236 230.517 9.78935 240.343 6.97824C251.986 3.58261 263.992 1.58974 276.107 1.0419C288.666 0.640738 301.183 2.69801 312.955 7.0982C318.066 8.99767 323.522 11.1691 327.528 14.996C329.536 16.9196 331.12 19.242 332.178 21.8143C333.236 24.3866 333.746 27.1519 333.673 29.9328C333.36 35.4371 331.437 40.7279 328.144 45.1476C327.708 45.7654 329.603 45.5374 329.916 45.0946C333.234 40.6505 335.204 35.3448 335.59 29.8108C335.703 27.086 335.267 24.3664 334.306 21.8142C333.346 19.2619 331.882 16.9295 330.001 14.956C326.205 10.9721 320.858 8.71175 315.816 6.7583C309.972 4.51168 303.932 2.81124 297.775 1.67872C285.423 -0.630632 272.943 -0.199752 260.568 1.73471C249.447 3.41877 238.532 6.26039 228.001 10.2133C207.722 17.9482 189.23 30.0898 172.893 44.2798C155.618 59.3023 140.558 76.6995 128.162 95.9523C117.473 112.565 107.698 131.136 109.332 151.522C110.461 165.608 117.624 179.207 130.234 186.167C142.638 193.013 157.606 191.757 169.774 185.011C173.385 182.993 176.763 180.582 179.847 177.822C183.597 174.488 186.931 170.697 190.426 167.102C198.274 159.028 206.282 151.113 214.452 143.358C231.542 127.076 249.165 111.374 267.319 96.2523C275.829 89.1676 284.469 82.2418 293.238 75.4751C297.241 72.3999 301.279 69.3718 305.352 66.3906C309.581 63.3015 313.969 60.4053 318.073 57.1532C322.557 53.6956 326.542 49.6355 329.916 45.0876C330.36 44.4787 328.462 44.7017 328.144 45.1426Z" fill="black"/>
<path d="M331.059 17.7142C307.873 30.3537 281.964 49.1844 258.48 68.2131C250.594 74.5893 242.975 81.0005 235.837 87.2078C233.168 89.5245 230.571 91.8081 228.045 94.0588C209.834 110.249 195.548 124.35 188.985 131.896C187.821 133.243 186.536 134.479 185.145 135.589C164.954 151.656 132.744 130.503 150.181 95.6544C159.607 76.8087 196.384 29.6269 256.524 2.82938C267.452 0.849937 279.954 -0.299741 291.208 1.18184C300.754 2.38243 310.08 4.94088 318.904 8.77972C323.801 10.9441 328.018 13.3164 331.059 17.7142Z" fill="black"/>
<path d="M169.783 141.521C164.135 141.521 158.66 139.57 154.283 135.997C145.742 129.063 140.062 114.764 149.734 95.4295C161.071 72.7618 200.034 27.4485 256.324 2.37252C256.36 2.35618 256.399 2.3441 256.438 2.33653C269.689 -0.0628005 281.412 -0.616645 291.277 0.68599C300.871 1.88998 310.243 4.46026 319.109 8.31885C324.356 10.6412 328.467 13.0795 331.476 17.4293C331.516 17.487 331.543 17.5524 331.556 17.6214C331.569 17.6904 331.567 17.7613 331.551 17.8296C331.535 17.8978 331.504 17.9619 331.462 18.0177C331.419 18.0734 331.365 18.1196 331.304 18.1531C310.825 29.318 285.751 46.7631 258.8 68.601C251.244 74.7113 243.63 81.0975 236.171 87.5837C233.503 89.899 230.906 92.1817 228.379 94.4317C211.908 109.075 196.594 123.909 189.366 132.221C188.182 133.59 186.875 134.847 185.461 135.977C181.014 139.55 175.486 141.504 169.783 141.521ZM256.672 3.31026C200.651 28.2923 161.899 73.3397 150.627 95.8733C141.22 114.679 146.673 128.528 154.912 135.218C159.146 138.65 164.431 140.521 169.88 140.517C175.328 140.512 180.61 138.633 184.839 135.194C186.205 134.103 187.468 132.888 188.612 131.565C194.386 124.924 207.692 111.485 227.715 93.681C230.242 91.4356 232.84 89.1506 235.507 86.8259C242.976 80.3327 250.599 73.9385 258.164 67.8212C284.945 46.1213 309.881 28.7471 330.323 17.5433C327.475 13.6644 323.602 11.401 318.697 9.2296C309.917 5.41043 300.637 2.86609 291.138 1.67371C281.393 0.390073 269.795 0.938919 256.672 3.31026Z" fill="black"/>
<path d="M196.141 137.442C214.59 137.442 229.547 122.474 229.547 104.011C229.547 85.5479 214.59 70.5804 196.141 70.5804C177.692 70.5804 162.735 85.5479 162.735 104.011C162.735 122.474 177.692 137.442 196.141 137.442Z" fill="white"/>
<path d="M246.451 94.2378C253.578 94.2378 259.356 88.4559 259.356 81.3234C259.356 74.191 253.578 68.4091 246.451 68.4091C239.324 68.4091 233.546 74.191 233.546 81.3234C233.546 88.4559 239.324 94.2378 246.451 94.2378Z" fill="white"/>
<path d="M115.01 242.309C113.132 243.899 111.31 245.535 109.545 247.218C88.2572 267.472 74.7611 293.914 73.2027 323.386C72.9641 327.9 73.0108 332.425 73.3425 336.933C73.3442 336.997 73.3509 337.06 73.3625 337.123C62.6482 342.589 50.5766 344.819 38.6183 343.541C11.0167 340.832 -14.0875 292.164 49.2274 253.416C49.4471 226.694 57.4389 192.133 85.1903 193.813C110.275 195.333 115.759 218.415 115.01 242.309Z" fill="#B1B1B1"/>
<path d="M114.25 242.205C103.52 251.246 94.3873 262.03 87.2363 274.106C80.3601 285.778 75.697 298.62 73.4814 311.987C72.0078 320.367 71.6434 328.905 72.3975 337.38L72.7821 336.901C65.8953 340.435 58.3767 342.569 50.6609 343.177C45.5662 343.586 40.0968 343.67 35.1169 342.321C29.2532 340.638 23.998 337.3 19.9795 332.707C10.0188 321.587 8.34348 305.705 13.615 292.037C17.3852 282.263 24.1462 273.871 31.8503 266.898C37.0644 262.235 42.6805 258.041 48.633 254.368C49.0845 254.085 49.9387 253.785 50.1874 253.278C50.2812 252.741 50.2903 252.192 50.2144 251.652C50.237 250.425 50.2766 249.199 50.3332 247.973C50.4558 245.29 50.6609 242.613 50.9486 239.942C52.0335 229.9 54.2033 219.625 58.9404 210.622C63.1361 202.644 69.8771 195.795 79.1356 194.491C89.2182 193.069 99.8872 196.92 105.975 205.199C112.047 213.456 113.667 224.376 114.04 234.366C114.14 237.1 114.133 239.837 114.05 242.572C114.036 243.034 115.96 242.73 115.98 242.054C116.526 223.914 113.518 199.748 92.6777 194.406C83.8697 192.146 74.2536 193.186 66.8752 198.745C59.7825 204.091 55.5948 212.491 52.9545 220.778C49.586 231.357 48.3653 242.604 48.2594 253.669L48.644 253.19C36.8302 260.445 25.5438 269.368 17.7038 280.959C12.3504 288.872 8.76404 298.067 8.65316 307.706C8.55106 315.532 10.8525 323.2 15.2464 329.674C19.1264 335.47 24.7011 339.925 31.2079 342.428C35.5466 343.855 40.103 344.503 44.6671 344.343C52.7559 344.373 60.7774 342.872 68.3087 339.919C70.2308 339.157 72.1048 338.288 73.9439 337.343C74.1188 337.253 74.3515 337.089 74.3276 336.864C73.6485 329.263 73.889 321.607 75.0438 314.063C75.9719 307.421 77.5212 300.881 79.6711 294.529C84.01 281.869 90.5357 270.069 98.9512 259.667C103.999 253.397 109.63 247.619 115.769 242.413C116.573 241.733 114.665 241.853 114.25 242.205Z" fill="black"/>
<path d="M38.6201 343.54C37.6978 343.577 36.7742 343.51 35.8669 343.34C33.4613 342.912 31.1228 342.167 28.9121 341.126C25.7739 339.631 22.8897 337.652 20.3649 335.262C17.4519 332.507 15.0088 329.294 13.1323 325.749C9.57977 318.992 8.0836 311.342 8.82875 303.743C8.90866 302.962 8.98592 302.214 9.06051 301.498C9.19237 300.798 9.31824 300.121 9.43612 299.488C9.554 298.856 9.6519 298.258 9.78476 297.713L10.1953 296.213C10.4491 295.305 10.6389 294.573 10.7947 294.061C10.9785 293.561 11.0874 293.261 11.1094 293.199C11.1573 293.076 11.5649 292.019 12.2432 290.264C12.6428 289.416 13.1313 288.399 13.6827 287.242C14.2342 286.084 15.0064 284.873 15.7616 283.514C16.5318 282.16 17.5438 280.815 18.5138 279.34C19.5587 277.917 20.7235 276.468 21.9203 274.974L23.8673 272.809C24.5296 272.082 25.1659 271.32 25.9042 270.639L28.0589 268.53C28.4226 268.179 28.7762 267.817 29.1478 267.474L30.2936 266.475C35.8396 261.604 41.8373 257.275 48.2052 253.545C49.4699 252.734 50.7126 252.137 51.7775 251.546C52.8544 250.977 53.7925 250.481 54.5657 250.074C55.3521 249.601 56.1858 249.211 57.0531 248.911C56.3537 249.507 55.5944 250.029 54.7874 250.469L52.1152 252.123C51.0902 252.77 49.8875 253.422 48.6667 254.288C42.5263 258.239 36.7384 262.713 31.3675 267.661L30.2687 268.667C29.912 269.013 29.5694 269.377 29.2257 269.73L27.1609 271.849C26.4616 272.532 25.8482 273.292 25.2169 274.016L23.3618 276.172C22.227 277.652 21.1231 279.086 20.1341 280.487C19.225 281.939 18.266 283.258 17.5488 284.578C16.8495 285.905 16.1112 287.077 15.6098 288.207C15.1083 289.336 14.6518 290.306 14.2771 291.129C13.6548 292.817 13.2782 293.833 13.2362 293.951C13.2142 294.01 13.1063 294.293 12.9235 294.771C12.7657 295.256 12.5759 295.95 12.3241 296.812C12.1983 297.243 12.0584 297.718 11.9086 298.232C11.7587 298.746 11.6778 299.317 11.5479 299.916C11.4181 300.515 11.2932 301.153 11.1554 301.823C11.0734 302.501 10.9865 303.212 10.8966 303.953C10.0541 311.182 11.3241 318.501 14.5529 325.022C16.2705 328.474 18.5302 331.627 21.246 334.363C23.617 336.75 26.3341 338.767 29.3057 340.344C31.4202 341.446 33.6537 342.303 35.9628 342.898C36.8669 343.027 37.7567 343.242 38.6201 343.54Z" fill="black"/>
<path d="M71.8409 247.174C71.8579 256.597 75.3233 278.815 62.2248 298.233C45.0935 323.626 27.9132 301.026 40.2425 288.117C52.5957 275.184 70.2716 269.603 71.8409 247.174Z" fill="black"/>
<path d="M71.8409 247.173C71.8829 248.275 71.8278 249.379 71.676 250.472C71.6511 250.733 71.6381 251.012 71.5971 251.3C71.5561 251.588 71.4842 251.885 71.4233 252.2C71.2994 252.824 71.1656 253.499 71.0237 254.222C70.8663 254.989 70.6543 255.744 70.3894 256.481C70.2635 256.877 70.1343 257.282 70.0017 257.696C69.9348 257.903 69.8669 258.113 69.802 258.325C69.7107 258.529 69.6195 258.735 69.5282 258.943C67.9423 262.801 65.6648 266.336 62.8082 269.375C59.5165 272.791 55.9718 275.954 52.2041 278.836C48.4875 281.696 44.9511 284.784 41.615 288.081C40.1151 289.507 38.9211 291.223 38.1056 293.126C37.3978 294.814 37.0589 296.635 37.1116 298.465C37.1698 301.222 38.2209 303.865 40.0716 305.908C40.8288 306.699 41.7195 307.35 42.7029 307.832C43.686 308.296 44.7464 308.574 45.8306 308.653C47.0126 308.697 48.1937 308.546 49.327 308.208C50.818 307.723 52.2294 307.021 53.5157 306.124C56.7537 303.714 59.525 300.733 61.6933 297.327C64.2853 293.46 66.3741 289.277 67.9089 284.881C69.4379 280.482 70.499 275.933 71.0746 271.311C71.5754 267.27 71.8243 263.202 71.8199 259.13C71.8309 255.55 71.72 252.561 71.72 250.466C71.707 249.419 71.72 248.595 71.753 248.033C71.7384 247.742 71.7722 247.451 71.8528 247.172C72.0383 248.255 72.1462 249.349 72.1755 250.447C72.3274 252.531 72.5751 255.514 72.703 259.117C72.8559 263.234 72.7315 267.356 72.3304 271.456C71.8658 276.194 70.8901 280.868 69.4203 285.395C67.9317 289.963 65.8596 294.32 63.2557 298.357C61.0121 302.009 58.1154 305.217 54.7105 307.82C53.2596 308.864 51.6613 309.685 49.9684 310.257C48.5932 310.69 47.1557 310.89 45.7148 310.85C44.3383 310.774 42.9888 310.437 41.7378 309.857C40.5069 309.248 39.3965 308.42 38.4602 307.414C36.2799 304.961 35.0634 301.8 35.0367 298.517C35.0082 296.397 35.433 294.296 36.2825 292.354C37.2275 290.242 38.589 288.343 40.2853 286.771C43.7323 283.481 47.3845 280.414 51.2201 277.588C54.9918 274.827 58.5579 271.795 61.8901 268.516C64.7376 265.642 67.0513 262.285 68.7231 258.6L69.0128 258.009C69.0867 257.805 69.16 257.603 69.2325 257.404C69.3784 257.004 69.5202 256.615 69.6581 256.236C69.9483 255.527 70.189 254.798 70.3784 254.055L70.8778 252.092C70.9558 251.788 71.0307 251.496 71.1026 251.218C71.1596 250.937 71.1905 250.664 71.2335 250.408C71.343 249.314 71.5462 248.232 71.8409 247.173Z" fill="black"/>
<path d="M67.4105 284.521C67.2417 284.455 67.9729 282.399 68.7611 279.248C69.1527 277.672 69.5313 275.819 69.819 273.815C70.1067 271.81 70.2745 269.652 70.3624 267.48C70.5193 263.137 70.4474 258.723 70.5473 255.361C70.6322 251.999 70.793 249.701 70.802 249.562C70.828 249.422 71.0158 247.111 71.5652 243.779C72.2488 239.762 73.136 235.782 74.2235 231.855C75.3853 227.604 76.7569 223.442 77.8547 220.359C78.9526 217.275 79.7378 215.247 79.8806 215.287C80.2563 215.398 77.6919 223.735 75.7659 232.244C74.8049 236.501 74.0287 240.804 73.6101 244.083C73.1915 247.362 73.0647 249.605 73.0397 249.742C73.0307 249.88 72.8099 252.132 72.6131 255.45C72.4013 258.767 72.3134 263.168 71.9458 267.584C71.7625 269.747 71.465 271.898 71.0547 274.029C70.6818 275.879 70.1953 277.704 69.5982 279.495C68.5383 282.621 67.5304 284.57 67.4105 284.521Z" fill="black"/>
<path d="M72.4381 241.967C72.1724 242.105 70.4772 239.416 69.2414 236.43C68.6648 235.057 68.1675 233.652 67.752 232.222C67.3973 231.042 67.2255 230.223 67.2045 230.169C67.1836 230.115 67.0637 229.287 66.9238 228.069C66.784 226.852 66.6721 225.241 66.6241 223.646C66.5392 220.446 66.712 217.307 67.0137 217.293C67.3314 217.278 67.722 220.402 68.2065 223.5C68.4552 225.047 68.723 226.59 68.9697 227.745C69.2165 228.901 69.4003 229.684 69.4103 229.732C69.4203 229.78 69.5331 230.578 69.7649 231.731C69.9757 232.893 70.3333 234.406 70.7439 235.907C71.5531 238.915 72.7249 241.824 72.4381 241.967Z" fill="black"/>
<path d="M384.648 160.096C392.462 143.438 398.839 135.686 411.559 123.731C396.559 132.652 387.349 136.639 369.191 139.542" fill="url(#paint2_linear_1150_7665)"/>
<path d="M369.191 139.542C369.163 139.373 371.896 138.826 375.966 137.874C380.948 136.735 385.841 135.24 390.608 133.398C395.396 131.465 400.041 129.191 404.505 126.594C408.235 124.46 410.758 122.887 410.986 122.764L412.328 124.55L412.317 124.561C412.195 124.692 410.015 126.655 406.944 129.638C403.209 133.211 399.733 137.047 396.544 141.115C393.437 145.205 390.631 149.515 388.146 154.011C386.092 157.68 384.803 160.174 384.65 160.1C384.77 159.46 384.982 158.841 385.28 158.263C385.739 157.119 386.463 155.516 387.373 153.605C389.62 148.91 392.262 144.415 395.271 140.169C398.366 135.917 401.779 131.906 405.482 128.172C408.508 125.073 410.656 123.054 410.781 122.921L410.792 122.91L412.136 124.696C411.904 124.82 409.339 126.346 405.505 128.404C400.897 130.925 396.102 133.091 391.164 134.882C386.275 136.587 381.249 137.874 376.142 138.727C374.067 139.07 372.337 139.322 371.119 139.444C370.484 139.571 369.835 139.604 369.191 139.542Z" fill="black"/>
<path d="M204.677 371.324C210.019 388.933 210.471 398.964 209.02 416.368C214.192 399.689 218.365 390.558 229.91 376.234" fill="white"/>
<path d="M229.91 376.234C230.043 376.341 228.379 378.577 225.994 382.012C223.055 386.196 220.422 390.586 218.113 395.149C215.85 399.793 213.921 404.594 212.343 409.515C211.001 413.597 210.18 416.457 210.093 416.701L207.9 416.275V416.259C207.9 416.079 208.209 413.16 208.494 408.887C208.878 403.729 208.893 398.551 208.54 393.391C208.112 388.273 207.314 383.192 206.152 378.189C205.222 374.09 204.511 371.37 204.675 371.321C205.015 371.877 205.271 372.479 205.436 373.109C205.862 374.265 206.396 375.942 206.999 377.97C208.472 382.963 209.517 388.072 210.123 393.242C210.668 398.473 210.814 403.738 210.562 408.991C210.387 413.321 210.144 416.26 210.14 416.443V416.458L207.947 416.031C208.036 415.785 208.922 412.932 210.39 408.833C212.126 403.872 214.238 399.051 216.708 394.412C219.199 389.869 222.071 385.546 225.293 381.489C226.605 379.844 227.72 378.498 228.544 377.59C229.367 376.683 229.85 376.185 229.91 376.234Z" fill="black"/>
<path d="M276.39 383.216C289.36 396.262 294.457 404.91 301.333 420.961C298.086 403.803 297.493 393.78 300.977 375.71" fill="white"/>
<path d="M300.978 375.71C301.145 375.742 300.723 378.499 300.227 382.652C299.592 387.725 299.323 392.836 299.422 397.948C299.599 403.112 300.146 408.257 301.058 413.343C301.785 417.58 302.4 420.49 302.437 420.747L300.3 421.399L300.294 421.385C300.213 421.224 299.115 418.504 297.365 414.596C295.287 409.861 292.875 405.281 290.145 400.89C287.368 396.573 284.281 392.462 280.911 388.591C278.168 385.404 276.267 383.339 276.389 383.219C276.949 383.55 277.458 383.961 277.899 384.44C278.816 385.261 280.075 386.491 281.557 388.001C285.197 391.719 288.514 395.741 291.472 400.023C294.404 404.388 297.001 408.968 299.241 413.726C301.116 417.633 302.277 420.343 302.359 420.506L302.365 420.52L300.228 421.172C300.191 420.912 299.636 417.973 299.014 413.674C298.223 408.478 297.829 403.229 297.836 397.973C297.907 392.791 298.418 387.625 299.364 382.53C299.75 380.462 300.106 378.749 300.409 377.561C300.505 376.919 300.697 376.295 300.978 375.71Z" fill="black"/>
<path d="M424.784 239.813C437.821 226.834 446.462 221.733 462.503 214.852C445.356 218.101 435.341 218.695 417.285 215.208" fill="url(#paint3_linear_1150_7665)"/>
<path d="M417.285 215.207C417.317 215.04 420.071 215.462 424.221 215.959C429.29 216.594 434.398 216.863 439.505 216.764C444.666 216.587 449.807 216.04 454.889 215.127C459.123 214.4 462.032 213.784 462.288 213.746L462.94 215.886L462.926 215.892C462.765 215.973 460.046 217.071 456.141 218.823C451.41 220.902 446.833 223.316 442.446 226.048C438.13 228.827 434.02 231.915 430.149 235.288C426.964 238.034 424.9 239.935 424.78 239.813C425.111 239.252 425.522 238.743 426 238.302C426.822 237.384 428.051 236.125 429.56 234.641C433.274 230.998 437.293 227.679 441.572 224.719C445.933 221.785 450.511 219.185 455.265 216.944C459.169 215.068 461.876 213.906 462.04 213.824L462.054 213.817L462.706 215.957C462.447 215.993 459.51 216.549 455.214 217.171C450.021 217.963 444.776 218.357 439.523 218.35C434.346 218.279 429.184 217.767 424.093 216.821C422.025 216.434 420.314 216.078 419.128 215.776C418.489 215.678 417.868 215.486 417.285 215.207Z" fill="black"/>
<path d="M50.3739 123.887C32.0588 122.236 22.6025 118.889 7.01855 111.017C20.5266 122.073 27.4196 129.37 36.3564 145.453" fill="white"/>
<path d="M36.3625 145.453C36.2137 145.536 34.7642 143.154 32.4795 139.655C29.7067 135.36 26.6282 131.27 23.268 127.417C19.8157 123.575 16.0923 119.985 12.1265 116.675C8.84787 113.897 6.50828 112.063 6.31348 111.891L7.53222 110.016L7.54621 110.023C7.71104 110.094 10.2994 111.472 14.1514 113.34C18.7839 115.631 23.5738 117.588 28.4847 119.196C33.3843 120.717 38.3876 121.881 43.4552 122.68C47.603 123.357 50.3861 123.717 50.3701 123.886C49.7284 123.994 49.0744 124.006 48.4291 123.922C47.1984 123.883 45.4442 123.751 43.3394 123.548C38.1624 123.042 33.0381 122.094 28.0221 120.716C22.9724 119.26 18.0406 117.422 13.2693 115.218C9.32338 113.431 6.69408 112.103 6.52626 112.031L6.51127 112.024L7.73002 110.149C7.92981 110.324 10.2364 112.218 13.4791 115.116C17.4237 118.587 21.0973 122.355 24.4678 126.387C27.7409 130.402 30.6677 134.688 33.2168 139.198C34.2487 141.033 35.0769 142.573 35.6073 143.677C35.9452 144.229 36.1996 144.827 36.3625 145.453Z" fill="black"/>
<path d="M101.753 71.7481C86.1831 61.9568 79.2763 54.6778 68.9639 40.5868C75.9846 56.5743 78.8187 66.2066 79.484 84.5975" fill="url(#paint4_linear_1150_7665)"/>
<path d="M79.4829 84.5975C79.3131 84.6045 79.1033 81.8233 78.6538 77.6654C78.1321 72.5786 77.2451 67.536 75.9995 62.5767C74.6657 57.5841 72.9761 52.6936 70.9437 47.9428C69.2824 43.9779 68.0297 41.2806 67.9348 41.0397L69.8708 39.922L69.8798 39.935C69.9947 40.073 71.678 42.4773 74.2603 45.8913C77.3493 50.0366 80.7297 53.9561 84.3759 57.62C88.0529 61.2038 91.9844 64.5162 96.1398 67.5313C99.5283 70.0186 101.845 71.6031 101.753 71.7481C101.133 71.552 100.545 71.2657 100.008 70.8983C98.9289 70.3045 97.4265 69.3888 95.6423 68.2521C91.2594 65.4491 87.1233 62.2771 83.279 58.7707C79.439 55.1786 75.8774 51.2995 72.625 47.167C69.9278 43.7879 68.1826 41.4046 68.0667 41.2636L68.0567 41.2506L69.9927 40.1339C70.0866 40.3799 71.2914 43.1161 72.8617 47.172C74.8011 52.0568 76.3651 57.0827 77.5399 62.2058C78.6353 67.2705 79.2987 72.4193 79.5229 77.5964C79.6108 79.6959 79.6498 81.4484 79.6228 82.672C79.6714 83.3172 79.6243 83.9661 79.4829 84.5975Z" fill="black"/>
<path d="M171.889 38.4125C158.254 26.0639 152.709 17.6953 145.005 2.02264C149.146 18.9949 150.262 28.9701 147.728 47.197" fill="url(#paint5_linear_1150_7665)"/>
<path d="M147.728 47.1969C147.559 47.1739 147.836 44.3977 148.114 40.2249C148.482 35.1246 148.482 30.0045 148.114 24.9042C147.667 19.7558 146.852 14.6461 145.675 9.61446C144.727 5.42163 143.961 2.54744 143.91 2.29351L146.008 1.52972L146.014 1.54372C146.104 1.69968 147.342 4.35893 149.295 8.17087C151.618 12.7898 154.267 17.2371 157.222 21.4791C160.221 25.6473 163.518 29.5925 167.087 33.2838C169.993 36.323 171.999 38.2824 171.882 38.4124C171.305 38.1115 170.775 37.7272 170.31 37.2717C169.35 36.4999 168.03 35.3373 166.47 33.9077C162.64 30.3856 159.118 26.5431 155.94 22.4219C152.783 18.2172 149.95 13.7783 147.465 9.14359C145.388 5.34466 144.086 2.6964 143.996 2.53744L143.989 2.52345L146.086 1.75966C146.136 2.01759 146.844 4.92177 147.691 9.18858C148.753 14.3363 149.421 19.5577 149.689 24.8072C149.889 29.9854 149.649 35.1713 148.971 40.3089C148.693 42.3953 148.428 44.1238 148.188 45.3245C148.127 45.9679 147.972 46.5988 147.728 47.1969Z" fill="black"/>
<path d="M472.99 286.733C490.953 282.807 500.946 283.193 518.076 286.115C502.01 279.488 493.338 274.504 480.2 261.633" fill="url(#paint6_linear_1150_7665)"/>
<path d="M480.199 261.632C480.318 261.51 482.378 263.376 485.559 266.074C493.306 272.814 502.091 278.257 511.573 282.191C515.504 283.891 518.266 284.966 518.503 285.075L517.886 287.223H517.871C517.692 287.204 514.821 286.651 510.602 286.004C505.513 285.185 500.372 284.738 495.218 284.665C490.099 284.673 484.988 285.057 479.926 285.815C475.776 286.415 473.021 286.903 472.985 286.736C473.563 286.442 474.182 286.234 474.821 286.12C476.004 285.788 477.712 285.39 479.776 284.952C484.853 283.884 490.014 283.256 495.199 283.076C500.442 282.962 505.685 283.255 510.883 283.951C515.169 284.492 518.065 284.986 518.247 285.005H518.262L517.646 287.155C517.408 287.043 514.649 285.906 510.721 284.077C505.953 281.904 501.361 279.364 496.986 276.479C492.71 273.578 488.692 270.316 484.975 266.727C483.468 265.266 482.238 264.027 481.418 263.128C480.598 262.228 480.146 261.688 480.199 261.632Z" fill="black"/>
<path d="M238.38 451.237C248.889 466.339 252.408 475.742 256.394 492.743C256.174 475.281 257.329 465.307 263.896 448.118" fill="white"/>
<path d="M263.896 448.118C264.056 448.179 263.162 450.817 261.952 454.824C260.446 459.71 259.294 464.699 258.505 469.752C257.783 474.869 257.428 480.031 257.444 485.198C257.425 489.497 257.525 492.47 257.518 492.729L255.3 493V492.985C255.249 492.813 254.64 489.943 253.594 485.787C252.369 480.763 250.788 475.833 248.863 471.034C246.877 466.298 244.552 461.711 241.904 457.311C239.756 453.696 238.242 451.331 238.383 451.234C238.447 451.19 238.905 451.726 239.658 452.699C240.411 453.673 241.445 455.099 242.643 456.842C245.583 461.136 248.152 465.674 250.321 470.405C252.452 475.212 254.214 480.175 255.594 485.249C256.762 489.423 257.436 492.293 257.492 492.468V492.483L255.275 492.754C255.283 492.492 255.247 489.503 255.382 485.156C255.504 479.902 256.026 474.664 256.945 469.489C257.915 464.398 259.315 459.4 261.129 454.546C261.87 452.577 262.517 450.947 263.02 449.835C263.227 449.223 263.522 448.644 263.896 448.118Z" fill="black"/>
<path d="M335.867 432.568C350.904 443.165 357.424 450.794 366.981 465.406C360.807 449.072 358.482 439.304 358.779 420.904" fill="white"/>
<path d="M358.778 420.904C358.949 420.904 359.013 423.695 359.244 427.87C359.499 432.978 360.121 438.06 361.106 443.078C362.177 448.133 363.608 453.105 365.389 457.956C366.84 462.003 367.95 464.762 368.032 465.008L366.04 466.022L366.032 466.009C365.924 465.865 364.372 463.376 361.969 459.831C359.101 455.53 355.929 451.439 352.479 447.589C348.994 443.819 345.24 440.306 341.248 437.078C337.995 434.417 335.764 432.712 335.863 432.573C336.472 432.801 337.044 433.118 337.561 433.513C338.607 434.163 340.059 435.155 341.782 436.385C346.013 439.412 349.979 442.795 353.636 446.497C357.281 450.286 360.634 454.346 363.664 458.643C366.189 462.164 367.802 464.63 367.911 464.777L367.92 464.79L365.929 465.804C365.848 465.554 364.791 462.758 363.432 458.626C361.751 453.646 360.452 448.545 359.547 443.367C358.718 438.252 358.325 433.075 358.372 427.893C358.395 425.794 358.447 424.04 358.539 422.82C358.524 422.173 358.605 421.528 358.778 420.904Z" fill="black"/>
<path d="M414.295 394.035C431.447 400.674 439.618 406.5 452.423 418.365C442.483 404.011 437.867 395.096 433.706 377.171" fill="white"/>
<path d="M433.706 377.171C433.872 377.132 434.605 379.822 435.842 383.818C437.324 388.712 439.157 393.492 441.325 398.123C443.586 402.768 446.177 407.245 449.077 411.519C451.464 415.094 453.208 417.502 453.346 417.717L451.66 419.183L451.648 419.173C451.509 419.059 449.4 417.02 446.212 414.162C442.39 410.683 438.325 407.48 434.047 404.58C429.754 401.764 425.263 399.263 420.61 397.096C416.809 395.297 414.233 394.188 414.295 394.029C414.942 394.102 415.574 394.271 416.171 394.529C417.343 394.906 418.992 395.517 420.96 396.293C425.797 398.208 430.462 400.532 434.904 403.24C439.357 406.033 443.592 409.161 447.571 412.597C450.868 415.403 453.033 417.405 453.175 417.521L453.186 417.531L451.499 418.997C451.36 418.775 449.659 416.317 447.341 412.637C444.506 408.212 442.013 403.576 439.883 398.772C437.842 394.009 436.209 389.082 435.002 384.043C434.515 381.995 434.144 380.286 433.937 379.079C433.768 378.457 433.69 377.815 433.706 377.171Z" fill="black"/>
<path d="M470.058 176.664C483.094 163.684 491.736 158.583 507.775 151.702C490.63 154.952 480.614 155.546 462.558 152.059" fill="url(#paint7_linear_1150_7665)"/>
<path d="M462.558 152.058C462.59 151.891 465.345 152.312 469.494 152.809C474.563 153.445 479.671 153.714 484.779 153.614C489.939 153.438 495.081 152.891 500.163 151.978C504.397 151.25 507.305 150.635 507.561 150.597L508.214 152.735L508.199 152.742C508.038 152.823 505.32 153.922 501.414 155.674C496.683 157.753 492.106 160.167 487.719 162.899C483.402 165.677 479.292 168.765 475.422 172.139C472.238 174.883 470.174 176.786 470.053 176.664C470.384 176.103 470.795 175.594 471.274 175.153C472.095 174.234 473.324 172.976 474.833 171.492C478.548 167.849 482.566 164.53 486.845 161.57C491.206 158.635 495.784 156.036 500.539 153.795C504.442 151.919 507.15 150.757 507.313 150.675L507.328 150.668L507.979 152.807C507.719 152.844 504.782 153.399 500.487 154.021C495.294 154.814 490.049 155.208 484.797 155.201C479.619 155.129 474.457 154.618 469.367 153.672C467.299 153.284 465.587 152.928 464.401 152.626C463.762 152.528 463.141 152.337 462.558 152.058Z" fill="black"/>
<path d="M394.026 78.4572C398.832 60.6942 403.767 51.9527 414.219 37.9686C400.994 49.3654 392.617 54.8878 375.238 60.9031" fill="url(#paint8_linear_1150_7665)"/>
<path d="M375.237 60.9011C375.182 60.7402 377.778 59.7264 381.621 58.0809C386.329 56.0942 390.888 53.7708 395.263 51.1288C399.644 48.3937 403.824 45.347 407.769 42.0124C411.073 39.2642 413.283 37.2767 413.486 37.1138L415.119 38.6393L415.11 38.6513C415.011 38.8023 413.206 41.1136 410.699 44.5857C407.641 48.7534 404.883 53.1344 402.448 57.695C400.099 62.2616 398.083 66.9923 396.416 71.85C395.029 75.8209 394.192 78.5012 394.027 78.4562C394.033 77.8051 394.134 77.1584 394.327 76.5367C394.58 75.3301 395.015 73.6246 395.581 71.5851C396.978 66.572 398.801 61.6873 401.028 56.9842C403.338 52.2603 406.004 47.7192 409.003 43.4C411.446 39.822 413.21 37.4607 413.31 37.3077L413.319 37.2947L414.953 38.8213C414.746 38.9822 412.481 40.9327 409.066 43.6249C404.965 46.9089 400.619 49.8747 396.067 52.4965C391.547 55.0257 386.821 57.1661 381.94 58.8947C379.957 59.5945 378.296 60.1413 377.119 60.4732C376.516 60.7072 375.882 60.8514 375.237 60.9011Z" fill="black"/>
<path d="M154.789 428.085C156.344 446.422 154.694 456.326 149.651 473.045C158.185 457.812 164.168 449.751 178.444 438.155" fill="white"/>
<path d="M178.444 438.152C178.552 438.284 176.458 440.125 173.41 442.987C169.665 446.464 166.174 450.206 162.966 454.184C159.784 458.254 156.898 462.548 154.331 467.031C152.166 470.744 150.767 473.37 150.635 473.591L148.578 472.715V472.7C148.619 472.525 149.526 469.735 150.695 465.615C152.144 460.652 153.238 455.591 153.967 450.472C154.615 445.377 154.893 440.241 154.798 435.105C154.745 430.9 154.616 428.094 154.785 428.08C155.002 428.694 155.128 429.336 155.158 429.987C155.333 431.207 155.507 432.959 155.673 435.068C156.074 440.258 156.031 445.473 155.546 450.656C154.989 455.886 154.037 461.066 152.696 466.152C151.623 470.35 150.772 473.173 150.73 473.35V473.365L148.674 472.49C148.813 472.267 150.272 469.661 152.564 465.962C155.295 461.472 158.365 457.197 161.746 453.175C165.129 449.252 168.839 445.623 172.835 442.328C174.46 440.993 175.832 439.91 176.831 439.194C177.315 438.77 177.858 438.419 178.444 438.152Z" fill="black"/>
<defs>
<linearGradient id="paint0_linear_1150_7665" x1="0.95459" y1="13.1846" x2="523.618" y2="13.1846" gradientUnits="userSpaceOnUse">
<stop offset="0.385417" stop-color="#6633FF"/>
<stop offset="0.75" stop-color="#3366FF"/>
<stop offset="1" stop-color="#0099FF"/>
</linearGradient>
<linearGradient id="paint1_linear_1150_7665" x1="310.569" y1="251.489" x2="447.29" y2="251.489" gradientUnits="userSpaceOnUse">
<stop offset="0.385417" stop-color="#6633FF"/>
<stop offset="0.75" stop-color="#3366FF"/>
<stop offset="1" stop-color="#0099FF"/>
</linearGradient>
<linearGradient id="paint2_linear_1150_7665" x1="369.191" y1="123.731" x2="413.678" y2="123.731" gradientUnits="userSpaceOnUse">
<stop offset="0.385417" stop-color="#6633FF"/>
<stop offset="0.75" stop-color="#3366FF"/>
<stop offset="1" stop-color="#0099FF"/>
</linearGradient>
<linearGradient id="paint3_linear_1150_7665" x1="417.285" y1="214.852" x2="464.763" y2="214.852" gradientUnits="userSpaceOnUse">
<stop offset="0.385417" stop-color="#6633FF"/>
<stop offset="0.75" stop-color="#3366FF"/>
<stop offset="1" stop-color="#0099FF"/>
</linearGradient>
<linearGradient id="paint4_linear_1150_7665" x1="68.9639" y1="40.5868" x2="103.393" y2="40.5868" gradientUnits="userSpaceOnUse">
<stop offset="0.385417" stop-color="#6633FF"/>
<stop offset="0.75" stop-color="#3366FF"/>
<stop offset="1" stop-color="#0099FF"/>
</linearGradient>
<linearGradient id="paint5_linear_1150_7665" x1="145.005" y1="2.02264" x2="173.233" y2="2.02264" gradientUnits="userSpaceOnUse">
<stop offset="0.385417" stop-color="#6633FF"/>
<stop offset="0.75" stop-color="#3366FF"/>
<stop offset="1" stop-color="#0099FF"/>
</linearGradient>
<linearGradient id="paint6_linear_1150_7665" x1="472.99" y1="261.633" x2="520.33" y2="261.633" gradientUnits="userSpaceOnUse">
<stop offset="0.385417" stop-color="#6633FF"/>
<stop offset="0.75" stop-color="#3366FF"/>
<stop offset="1" stop-color="#0099FF"/>
</linearGradient>
<linearGradient id="paint7_linear_1150_7665" x1="462.558" y1="151.702" x2="510.036" y2="151.702" gradientUnits="userSpaceOnUse">
<stop offset="0.385417" stop-color="#6633FF"/>
<stop offset="0.75" stop-color="#3366FF"/>
<stop offset="1" stop-color="#0099FF"/>
</linearGradient>
<linearGradient id="paint8_linear_1150_7665" x1="375.238" y1="37.9686" x2="416.169" y2="37.9686" gradientUnits="userSpaceOnUse">
<stop offset="0.385417" stop-color="#6633FF"/>
<stop offset="0.75" stop-color="#3366FF"/>
<stop offset="1" stop-color="#0099FF"/>
</linearGradient>
</defs>
</svg>
