<svg width="1000" height="1000" viewBox="0 0 1000 1000" fill="none" xmlns="http://www.w3.org/2000/svg">
<path d="M559.767 897.021C558.545 932.028 543.17 955.72 543.17 955.72C538.791 960.879 524.783 970.42 502.971 969.555C481.064 968.685 463.52 961.929 463.833 952.959V952.95C463.833 952.95 473.6 934.569 477.556 914.096C478.447 909.664 478.987 905.168 479.169 900.651C479.604 884.392 478.782 868.123 476.708 851.991L529.379 842.866L536.449 841.646L557.665 838.188C557.665 838.188 560.557 858.921 559.955 890.146C559.908 892.379 559.846 894.671 559.767 897.021Z" fill="#B1B1B1"/>
<path d="M558.817 897.278C558.193 915.624 553.641 933.622 545.466 950.056C544.149 952.665 542.922 955.35 540.782 957.373C535.455 962.405 528.311 965.575 521.291 967.372C510.248 970.198 498.37 969.515 487.28 967.268C482.549 966.402 477.948 964.934 473.589 962.9C470.658 961.459 467.517 959.526 465.828 956.626C465.181 955.554 464.821 954.333 464.781 953.082C464.847 952.644 465.01 952.226 465.257 951.859C466.537 949.315 467.73 946.723 468.862 944.108C473.281 934.146 476.572 923.72 478.673 913.025C480.932 900.914 480.482 888.332 479.843 876.079C479.439 868.327 478.803 860.574 477.812 852.873C477.763 852.497 477.713 852.119 477.662 851.743L476.542 852.38L510.766 846.451C519.793 844.886 528.811 843.253 537.852 841.779L557.496 838.576L556.714 838.449C558.444 850.894 558.885 863.605 559.05 876.148C559.142 883.194 559.064 890.239 558.817 897.282C558.805 897.618 560.698 897.363 560.718 896.773C561.473 878.289 560.908 859.774 559.026 841.37C558.901 840.226 558.774 839.081 558.616 837.94C558.582 837.698 557.954 837.794 557.833 837.813C548.212 839.382 538.585 840.925 528.98 842.589L490.823 849.201L476.879 851.616C476.66 851.655 475.705 851.861 475.76 852.253C476.567 857.974 477.074 863.749 477.497 869.509C477.927 875.375 478.2 881.25 478.317 887.135C478.577 893.869 478.378 900.613 477.719 907.32C476.33 918.978 472.77 930.377 468.335 941.212C466.98 944.523 465.529 947.798 463.956 951.011C463.589 951.647 463.26 952.305 462.971 952.98C462.802 953.79 462.871 954.631 463.168 955.403C464.038 958.336 466.602 960.505 469.099 962.071C472.892 964.31 477 965.969 481.285 966.992C486.728 968.393 492.287 969.298 497.894 969.698C503.675 970.218 509.495 970.076 515.244 969.275C523.743 968.122 531.855 965.001 538.936 960.159C540.9 958.903 542.651 957.34 544.124 955.531C544.681 954.695 545.19 953.828 545.649 952.934C553.623 938.585 558.313 922.206 560.065 905.938C560.393 902.886 560.611 899.826 560.718 896.758C560.73 896.432 558.838 896.688 558.817 897.278Z" fill="black"/>
<path d="M556.626 838.152L476.711 851.991C478.785 868.123 479.607 884.392 479.172 900.651C478.99 905.168 478.45 909.664 477.559 914.096C485.588 914.48 496.697 912.114 508.324 907.396C508.924 907.153 509.515 906.904 510.096 906.649C525.637 899.73 541.777 894.242 558.315 890.254L558.921 890.11C559.519 858.886 556.626 838.152 556.626 838.152Z" fill="black"/>
<path d="M556.438 837.449L529.466 842.12L486.442 849.571L476.523 851.288C476.299 851.324 476.097 851.442 475.956 851.619C475.814 851.796 475.745 852.02 475.761 852.247C477.7 866.465 478.559 880.81 478.331 895.159C478.325 901.531 477.742 907.889 476.59 914.156C476.523 914.502 476.928 914.819 477.24 914.832C487.37 915.269 497.59 912.339 506.948 908.727C512.477 906.59 517.861 904.099 523.388 901.949C528.914 899.798 534.524 897.813 540.183 896.023C546.426 894.043 552.738 892.342 559.106 890.818C559.429 890.741 559.878 890.436 559.885 890.056C560.299 873.626 559.647 857.186 557.934 840.839C557.824 839.855 557.713 838.879 557.577 837.902C557.447 836.962 555.541 837.442 555.676 838.412C557.045 849.323 557.791 860.304 557.911 871.3C558.06 877.591 558.074 883.884 557.95 890.177L558.729 889.415C547.628 892.063 536.702 895.397 526.014 899.4C515.237 903.443 504.892 908.684 493.671 911.44C488.523 912.825 483.204 913.474 477.874 913.369L478.523 914.046C480.661 903.023 480.492 891.716 480.054 880.54C479.738 872.436 479.128 864.351 478.222 856.284C478.051 854.769 477.875 853.254 477.662 851.744L476.899 852.702L503.871 848.031L546.896 840.58L556.814 838.863C558.03 838.645 557.628 837.243 556.438 837.449Z" fill="black"/>
<path d="M763.822 679.508C763.822 760.825 693.774 850.214 536.19 868.31C516.188 870.066 495.469 870.938 474.232 870.938C452.994 870.938 432.286 870.066 412.283 868.31C375.935 866.419 349.049 860.519 314.871 850.962C228.033 825.937 170.135 777.249 170.135 704.054C170.135 591.804 306.285 464.455 474.234 464.455C487.639 464.448 501.035 465.118 514.373 466.46C597.62 474.863 666.641 509.072 710.819 555.9C744.57 591.688 763.822 634.85 763.822 679.508Z" fill="#B1B1B1"/>
<path d="M762.874 679.763C762.807 715.253 749.31 749.46 727.323 777.063C698.928 812.708 658.235 836.497 615.48 850.843C587.056 860.387 557.555 866.356 527.658 868.613C492.056 871.245 456.307 871.217 420.709 868.53C404.492 867.304 388.323 866.24 372.251 863.641C356.745 861.027 341.382 857.632 326.219 853.468C299.218 846.247 272.712 836.898 248.386 822.958C228.534 811.581 210.109 797.131 196.187 778.83C182.834 761.354 174.449 740.595 171.92 718.745C167.123 676.537 183.193 634.521 206.706 600.143C234.548 559.435 273.832 526.825 317.271 503.889C367.235 477.544 423.003 464.145 479.478 464.918C539.899 465.774 600.93 480.214 653.14 511.238C701.193 539.793 742.826 583.772 757.47 638.858C761.017 652.205 762.833 665.954 762.874 679.765C762.874 680.138 764.778 679.848 764.776 679.255C764.595 619.672 730.268 566.751 684.559 530.838C639.205 495.203 583.089 474.786 526.244 467.346C467.227 459.622 407.209 465.651 351.648 487.335C304.172 505.866 260.309 534.997 226.291 573.105C197.53 605.329 174.65 645.405 170.013 688.969C167.708 710.631 170.257 732.748 178.821 752.864C187.582 773.443 202.132 790.995 219.378 805.064C239.204 821.239 262.329 833.066 286.172 842.098C300.465 847.382 315.032 851.891 329.81 855.605C344.866 859.606 360.125 862.8 375.522 865.174C392.323 867.672 409.309 868.734 426.248 869.843C444.044 871.008 461.882 871.472 479.72 871.336C512.915 871.087 545.88 868.822 578.364 861.733C625.923 851.356 672.842 831.815 708.992 798.479C736.237 773.352 756.476 740.306 762.722 703.481C764.077 695.478 764.765 687.376 764.778 679.259C764.776 678.883 762.875 679.169 762.874 679.763Z" fill="black"/>
<path d="M474.238 828.263C610.321 828.263 720.638 751.939 720.638 657.789C720.638 563.638 610.321 487.314 474.238 487.314C338.156 487.314 227.839 563.638 227.839 657.789C227.839 751.939 338.156 828.263 474.238 828.263Z" fill="white"/>
<path d="M192.454 659.846C179.34 649.54 159.903 649.126 145.31 657.191C130.716 665.256 120.996 680.759 117.987 697.168C116.055 707.691 116.819 719.134 122.481 728.214C129.901 740.113 144.827 745.967 158.814 745.077C172.801 744.187 185.869 737.439 196.9 728.783L192.454 659.846Z" fill="#B1B1B1"/>
<path d="M143.661 669.036C151.443 663.689 160.791 661.102 170.214 661.69C172.902 661.75 175.541 662.422 177.931 663.653C179.119 664.281 180.136 665.187 180.898 666.294C181.659 667.4 182.142 668.675 182.304 670.008C182.61 674.591 178.259 677.96 174.392 680.434L161.632 688.591L143.603 700.112C140.243 702.26 136.417 704.503 132.516 703.674C131.29 703.362 130.16 702.753 129.225 701.9C128.29 701.048 127.58 699.978 127.156 698.786C126.229 696.387 126.626 693.87 127.328 691.463C130.112 682.371 135.863 674.474 143.661 669.036Z" fill="white"/>
<path d="M193.351 659.523C182.296 650.929 167.143 649.282 153.947 653.249C140.436 657.305 129.609 667.302 123.125 679.685C116.394 692.553 113.377 709.131 118.792 722.995C123.957 736.217 137.101 743.9 150.802 745.315C166.003 746.885 181.04 740.635 193.269 732.049C194.796 730.978 196.291 729.86 197.761 728.712C198.112 728.436 197.448 728.403 197.314 728.408C196.854 728.429 196.41 728.586 196.04 728.86C184.424 737.935 170.213 745.273 155.107 744.757C142.169 744.315 128.875 738.032 122.501 726.368C115.632 713.797 117.237 697.837 122.411 684.966C127.364 672.645 136.454 661.525 148.669 655.893C160.883 650.261 175.955 650.576 187.604 657.469C188.978 658.286 190.298 659.189 191.558 660.173C191.965 660.489 193.625 659.737 193.351 659.527V659.523Z" fill="black"/>
<path d="M161.791 675.091C162.042 675.288 161.177 676.849 159.862 679.143C158.547 681.436 156.841 684.509 155.266 687.644C153.729 690.802 152.288 694.003 151.328 696.488C150.349 698.961 149.767 700.678 149.71 700.775C149.687 700.886 148.948 702.54 147.991 705.02C147.007 707.492 145.898 710.82 144.884 714.178C143.914 717.548 143.082 720.958 142.494 723.532C141.905 726.106 141.479 727.841 141.161 727.815C140.865 727.792 140.714 726.003 140.784 723.311C140.914 720.009 141.264 716.72 141.833 713.465C142.419 710.172 143.184 706.913 144.126 703.704C144.905 701.045 145.56 699.273 145.585 699.154C145.644 699.055 146.372 697.301 147.601 694.821C149.087 691.823 150.736 688.908 152.541 686.089C154.332 683.311 156.307 680.656 158.452 678.141C160.232 676.119 161.561 674.91 161.791 675.091Z" fill="black"/>
<path d="M163.946 725.208C163.644 725.306 162.87 723.781 161.781 721.501C160.691 719.222 159.226 716.202 157.662 713.235C156.064 710.281 154.398 707.373 153.029 705.227C151.68 703.072 150.699 701.644 150.656 701.545C150.586 701.463 149.744 699.95 148.411 697.786C147.099 695.609 145.23 692.824 143.292 690.084C141.331 687.368 139.278 684.717 137.718 682.73C136.159 680.743 135.142 679.376 135.361 679.148C135.565 678.934 136.991 679.885 138.96 681.534C141.347 683.585 143.606 685.782 145.724 688.111C148.031 690.671 150.233 693.363 151.785 695.496C153.36 697.614 154.345 699.124 154.415 699.21C154.461 699.308 155.376 700.868 156.581 703.218C157.803 705.558 159.239 708.727 160.51 711.933C161.657 714.867 162.623 717.87 163.403 720.923C164.008 723.419 164.227 725.12 163.946 725.208Z" fill="black"/>
<path d="M219.916 548.156C220.03 548.288 217.948 550.241 214.907 553.251C211.866 556.261 207.952 560.419 204.232 564.772C200.565 569.166 197.046 573.707 194.585 577.298C193.298 579.054 192.342 580.619 191.603 581.701C190.879 582.792 190.443 583.448 190.393 583.525C190.343 583.602 189.917 584.265 189.211 585.365C188.522 586.474 187.47 587.979 186.38 589.862C184.083 593.56 181.339 598.601 178.79 603.72C176.301 608.871 174.065 614.121 172.532 618.114C170.999 622.107 170.045 624.794 169.874 624.742C169.913 624.082 170.046 623.432 170.268 622.81C170.606 621.606 171.025 619.856 171.717 617.826C173.344 612.808 175.23 607.878 177.368 603.056C179.76 597.803 182.389 592.623 184.621 588.822C185.677 586.887 186.7 585.34 187.378 584.2L188.538 582.311L189.802 580.488C190.576 579.404 191.58 577.848 192.929 576.103C195.518 572.533 199.204 568.039 203.058 563.736C206.617 559.839 210.376 556.129 214.32 552.623C215.906 551.172 217.337 550.086 218.305 549.293C218.785 548.839 219.328 548.456 219.916 548.156Z" fill="black"/>
<path d="M207.761 541.683C207.86 541.831 205.966 543.185 203.216 545.314C199.865 547.934 196.652 550.728 193.591 553.683C190.541 556.686 187.664 559.859 184.975 563.189C183.828 564.533 182.991 565.766 182.338 566.603C181.686 567.44 181.316 567.962 181.27 568.021C181.225 568.08 180.853 568.6 180.232 569.459C179.626 570.331 178.697 571.494 177.752 572.985C175.368 576.536 173.189 580.219 171.224 584.017C169.307 587.813 167.588 591.706 166.074 595.68C164.855 598.929 164.12 601.139 163.95 601.095C164.184 599.159 164.623 597.252 165.258 595.408C166.504 591.286 168.026 587.254 169.814 583.337C171.648 579.39 173.728 575.562 176.041 571.876C176.959 570.324 177.868 569.111 178.464 568.205C179.076 567.31 179.448 566.772 179.488 566.709L180.614 565.288C181.303 564.451 182.194 563.221 183.407 561.886C186.247 558.584 189.291 555.463 192.521 552.542C195.736 549.676 199.141 547.029 202.711 544.62C204.286 543.466 205.979 542.481 207.761 541.683Z" fill="black"/>
<path d="M776.983 627.259C776.819 627.31 775.945 624.883 774.546 621.284C773.147 617.684 771.117 612.943 768.863 608.296C766.552 603.675 764.066 599.127 761.988 595.791C759.943 592.435 758.425 590.225 758.357 590.072C758.243 589.95 756.833 587.671 754.585 584.452C752.367 581.208 749.203 577.108 745.905 573.136C742.558 569.205 739.041 565.445 736.309 562.717C733.576 559.988 731.708 558.216 731.821 558.089C731.907 557.99 733.968 559.542 736.898 562.091C740.466 565.249 743.865 568.592 747.082 572.106C750.566 575.987 753.9 580.04 756.236 583.262C758.608 586.459 760.093 588.74 760.207 588.864C760.276 589.018 761.766 591.298 763.742 594.756C765.751 598.197 768.125 602.882 770.278 607.636C772.203 611.999 773.898 616.46 775.355 621C776.521 624.707 777.111 627.221 776.983 627.259Z" fill="black"/>
<path d="M771.62 582.496C771.476 582.572 770.636 581.273 769.372 579.345C768.108 577.417 766.361 574.878 764.511 572.413C762.633 569.968 760.677 567.576 759.097 565.841C757.538 564.093 756.418 562.954 756.362 562.871C756.285 562.81 755.237 561.604 753.617 559.917C752.011 558.212 749.778 556.077 747.491 554.016C745.179 551.982 742.791 550.045 740.964 548.634C739.137 547.223 737.912 546.286 737.997 546.148C738.072 546.027 739.458 546.719 741.453 547.92C743.885 549.422 746.235 551.054 748.492 552.807C750.953 554.747 753.335 556.804 755.055 558.465C756.79 560.11 757.91 561.302 757.988 561.365C758.046 561.448 759.146 562.659 760.652 564.516C762.175 566.362 764.042 568.903 765.786 571.507C767.361 573.896 768.807 576.367 770.117 578.911C771.163 580.993 771.746 582.43 771.62 582.496Z" fill="black"/>
<path d="M236.291 506.775C236.186 506.828 235.062 504.924 234.038 501.768C233.459 499.964 233.024 498.118 232.737 496.246C232.432 494.082 232.301 491.898 232.343 489.713C232.454 485.564 233.241 481.461 234.674 477.566C235.365 475.71 236.198 473.911 237.165 472.183C238.207 470.501 239.377 468.902 240.664 467.4C243.376 464.262 246.581 461.587 250.153 459.481C252.041 458.386 254.014 457.443 256.052 456.661C257.827 456.005 259.651 455.491 261.507 455.124C264.762 454.491 266.969 454.551 266.973 454.669C266.99 454.855 264.821 455.089 261.707 455.963C259.938 456.46 258.204 457.076 256.518 457.809C254.599 458.673 252.747 459.677 250.976 460.813C247.666 462.97 244.715 465.634 242.231 468.707C239.912 471.631 238.009 474.863 236.577 478.309C235.091 481.974 234.19 485.85 233.908 489.794C233.773 491.896 233.792 494.004 233.965 496.103C234.143 497.934 234.444 499.751 234.867 501.541C235.613 504.687 236.461 506.7 236.291 506.775Z" fill="black"/>
<path d="M650.489 460.112C650.374 460.23 648.975 459.043 646.715 457.478C644.47 455.893 641.346 453.957 638.136 452.148C634.926 450.339 631.62 448.668 629.092 447.447C626.563 446.226 624.806 445.46 624.702 445.404C624.599 445.348 622.88 444.502 620.329 443.33C617.777 442.157 614.386 440.671 610.96 439.298C607.535 437.926 604.081 436.654 601.483 435.725C598.884 434.797 597.146 434.19 597.188 434.037C597.265 433.727 604.462 435.393 611.504 437.829C615.029 439.028 618.523 440.366 621.145 441.459C623.766 442.552 625.533 443.355 625.644 443.398C625.755 443.442 627.499 444.298 630.013 445.627C632.527 446.955 635.795 448.791 638.941 450.804C641.838 452.614 644.611 454.615 647.241 456.795C649.375 458.598 650.589 460.013 650.489 460.112Z" fill="black"/>
<path d="M663.232 501.21L663.24 501.217C670.948 509.129 678.247 517.43 685.108 526.087C742.977 598.836 661.483 653.465 614.396 622.321C609.96 619.384 605.979 615.812 602.58 611.719C590.25 596.956 578.651 584.209 567.635 573.191C540.239 545.765 516.431 529.061 493.796 518.896C492.934 518.503 492.087 518.101 491.291 517.672C450.481 496.328 482.411 432 556.296 441.488C584.598 445.115 622.911 459.917 663.232 501.21Z" fill="#B1B1B1"/>
<path d="M662.359 501.62C667.654 506.859 672.668 512.375 677.38 518.145C682.169 523.623 686.618 529.389 690.702 535.411C696.824 544.746 701.588 555.147 703.384 566.231C704.89 574.691 704.287 583.392 701.63 591.564C698.973 599.736 694.344 607.127 688.151 613.083C676.316 624.526 660.435 630.819 643.978 630.59C635.686 630.464 627.531 628.457 620.128 624.718C614.853 622.003 610.068 618.427 605.97 614.137C603.272 611.312 600.852 608.208 598.32 605.239C595.806 602.295 593.267 599.373 590.705 596.475C580.949 585.447 570.809 574.744 560.115 564.621C550.027 554.958 539.284 546.003 527.964 537.819C518.509 530.999 508.473 525.023 497.973 519.96C493.839 517.991 489.729 516.178 486.089 513.363C483.438 511.326 481.126 508.883 479.237 506.124C475.795 500.989 474.085 494.887 474.357 488.711C474.735 482.077 476.82 475.653 480.41 470.061C484.552 463.57 490.018 458.028 496.449 453.796C504.139 448.726 512.718 445.154 521.734 443.268C532.748 440.987 544.068 440.577 555.218 442.055C564.316 443.2 573.275 445.26 581.959 448.204C592.578 451.807 602.81 456.464 612.502 462.106C624.199 468.927 635.232 476.827 645.457 485.704C651.325 490.754 656.946 496.085 662.359 501.62C662.931 502.204 664.735 501.445 664.105 500.801C653.528 489.875 641.986 479.929 629.618 471.083C619.468 463.847 608.631 457.627 597.265 452.511C587.922 448.311 578.177 445.071 568.18 442.842C557.879 440.508 547.314 439.554 536.762 440.006C526.458 440.445 516.313 442.709 506.8 446.693C498.911 450.002 491.743 454.818 485.698 460.872C480.544 466.003 476.63 472.244 474.256 479.119C472.158 485.191 471.859 491.74 473.395 497.979C475.15 504.307 478.88 509.91 484.041 513.969C487.656 516.886 491.747 518.779 495.921 520.748C501.055 523.169 506.066 525.845 510.951 528.733C522.126 535.432 532.739 543.026 542.686 551.441C554.288 561.249 565.313 571.719 575.707 582.799C580.891 588.267 585.963 593.839 590.921 599.516C593.608 602.582 596.266 605.672 598.895 608.785C601.318 611.815 603.929 614.69 606.711 617.394C613.852 623.979 622.624 628.535 632.117 630.589C640.347 632.32 648.845 632.351 657.088 630.68C665.302 629.045 673.129 625.857 680.148 621.287C687.124 616.78 693.078 610.86 697.625 603.909C702.278 596.71 705.104 588.484 705.859 579.945C706.568 570.002 704.924 560.031 701.059 550.843C695.958 538.211 687.719 527.454 678.973 517.146C674.309 511.44 669.347 505.984 664.109 500.801C663.514 500.238 661.716 501.006 662.359 501.62Z" fill="black"/>
<path d="M652.234 501.288L652.241 501.295C658.881 507.728 665.638 514.883 672.511 522.76C726.791 585.187 664.894 624.687 623.32 596.644C619.392 593.99 615.802 590.867 612.628 587.346C601.13 574.644 590.42 563.616 580.34 554.03C555.293 530.166 534.186 515.211 514.647 505.63C513.903 505.262 513.171 504.883 512.476 504.488C476.977 484.763 497.257 434.474 558.84 446.532C582.435 451.144 615.284 465.41 652.234 501.288Z" fill="white"/>
<path d="M593.274 456.962C639.368 476.564 676.843 525.935 657.006 539.625C640.148 553.401 600.121 509.381 569.71 497.894C534.718 481.71 489.674 487.514 495.562 466.976C498.417 455.703 513.021 446.731 534.035 444.978C552.081 443.472 571.872 447.86 593.274 456.962Z" fill="black"/>
<path d="M593.82 527.236C609.774 527.236 622.707 514.299 622.707 498.341C622.707 482.383 609.774 469.447 593.82 469.447C577.866 469.447 564.933 482.383 564.933 498.341C564.933 514.299 577.866 527.236 593.82 527.236Z" fill="white"/>
<path d="M271.294 545.856C273.103 547.123 275.072 548.363 277.2 549.576C300.592 562.912 327.624 586.796 346.486 607.168C354.9 616.243 361.689 624.629 365.808 631.08C369.676 636.906 374.583 641.971 380.284 646.022C398.901 659.592 428.199 666.313 454.448 644.422C489.387 615.265 480.18 578.393 460.007 552.887C455.812 547.57 451.591 542.621 447.367 537.975C411.875 498.921 376.196 482.424 351.762 474.728C312.601 462.408 280.894 470.762 267.105 482.989C254.068 494.556 239.737 523.843 271.294 545.856Z" fill="#B1B1B1"/>
<path d="M270.401 546.194C275.23 549.547 280.473 552.269 285.393 555.489C290.404 558.769 295.273 562.265 300.03 565.903C309.968 573.54 319.497 581.696 328.577 590.337C337.609 598.8 346.156 607.766 354.178 617.192C357.799 621.403 361.168 625.823 364.269 630.43C367.375 635.233 371.154 639.565 375.491 643.292C390.859 656.365 412.178 662.428 431.869 656.961C443.408 653.758 453.544 646.907 461.814 638.351C468.938 630.982 474.545 622.077 477.15 612.105C481.89 593.967 476.13 575.105 466.125 559.807C463.127 555.352 459.877 551.073 456.389 546.992C451.998 541.714 447.418 536.602 442.648 531.657C433.87 522.534 424.391 514.113 414.299 506.47C398.669 494.61 381.438 485.026 363.118 478.004C342.81 470.301 320.899 466.073 299.216 469.379C290.388 470.583 281.848 473.364 274.004 477.59C268.131 480.871 263.087 485.453 259.257 490.986C254.939 497.009 252.252 504.048 251.459 511.418C250.764 519.844 253.238 528.225 258.396 534.923C261.783 539.287 265.836 543.09 270.405 546.194C270.869 546.519 272.538 545.763 272.19 545.518C264.039 539.794 256.886 532.115 254.287 522.272C252.467 514.825 253.104 506.989 256.103 499.934C258.642 493.629 262.546 487.964 267.533 483.347C273.064 478.279 280.153 474.984 287.266 472.811C308.759 466.233 332.252 468.954 353.292 475.863C370.085 481.425 386.072 489.177 400.839 498.918C421.482 512.474 439.671 529.547 455.363 548.574C461.604 556.141 467.232 564.063 471.177 573.092C474.827 581.176 476.796 589.917 476.965 598.785C477.096 620.259 463.445 639.373 445.506 650.242C436.08 656.017 425.1 658.738 414.069 658.034C404.395 657.287 395.027 654.304 386.703 649.319C381.991 646.558 377.641 643.221 373.754 639.384C371.727 637.386 369.864 635.227 368.185 632.928C366.78 630.991 365.541 628.939 364.149 626.989C357.278 617.333 349.192 608.517 340.918 600.055C324.359 583.119 306.257 567.175 286.343 554.28C281.682 551.262 276.735 548.687 272.174 545.517C271.72 545.194 270.056 545.955 270.401 546.194Z" fill="black"/>
<path d="M442.871 545.178C461.476 566.705 471.771 597.567 444.794 621.426C417.816 645.285 382.724 626.782 370.123 609.168C357.522 591.555 320.117 556.588 290.615 540.076C256.489 520.974 266.863 494.442 277.458 484.422C288.053 474.402 313.821 467.842 347.261 478.619C370.624 486.149 406.469 503.056 442.871 545.178Z" fill="white"/>
<path d="M371.854 486.777C417.348 507.837 448.555 557.209 428.129 569.955C418.441 576.749 405.847 568.141 390.23 556.776C374.917 545.312 356.575 531.09 342.502 524.419C308.062 506.747 261.847 513.074 269.179 492.645C276.011 471.729 326.778 464.319 371.854 486.777Z" fill="black"/>
<path d="M375.343 559.6C391.297 559.6 404.23 546.664 404.23 530.706C404.23 514.748 391.297 501.811 375.343 501.811C359.39 501.811 346.457 514.748 346.457 530.706C346.457 546.664 359.39 559.6 375.343 559.6Z" fill="white"/>
<path d="M550.518 854.721C535.599 873.528 515.529 887.35 491.062 895.773L490.891 896.068L482.755 898.383C465.723 903.114 448.088 905.318 430.416 904.923C428.727 904.905 426.958 904.856 425.154 904.78C405.219 903.905 385.519 900.115 366.682 893.532C347.014 886.735 328.707 876.502 312.614 863.308C297.21 850.698 283.735 835.899 272.619 819.383C270.656 816.457 268.78 813.503 267.029 810.593C260.04 799.02 254.339 786.718 250.026 773.905" fill="#B1B1B1"/>
<path d="M549.646 854.751C537.462 869.915 521.899 882.014 504.202 890.083C501.608 891.279 498.979 892.393 496.314 893.426C494.926 893.965 493.53 894.484 492.127 894.983C491.26 895.292 490.42 895.394 489.947 896.215L490.79 895.694C486.001 897.056 481.224 898.485 476.382 899.654C466.304 902.064 456.032 903.573 445.686 904.163C424.9 905.356 404.054 903.315 383.894 898.114C364.108 893.148 345.287 884.923 328.201 873.776C294.401 851.061 268.333 818.572 253.479 780.647C252.595 778.331 251.76 775.997 250.976 773.646C250.794 773.103 248.908 773.646 249.075 774.155C255.862 794.093 265.877 812.782 278.718 829.475C291.051 845.751 305.82 860.028 322.503 871.802C339.734 883.732 358.884 892.618 379.119 898.073C399.327 903.638 420.271 906.059 441.215 905.251C451.501 904.859 461.735 903.599 471.808 901.485C478.087 900.155 484.253 898.39 490.413 896.609C490.734 896.571 491.042 896.463 491.317 896.293C491.591 896.123 491.825 895.895 492.003 895.624L491.412 896.065C509.607 889.768 526.582 880.039 540.505 866.661C544.395 862.915 548.031 858.915 551.39 854.687C551.835 854.129 549.976 854.335 549.647 854.749L549.646 854.751Z" fill="black"/>
<path d="M543.95 826.405C543.243 827.839 542.465 829.282 541.623 830.757C537.154 838.527 531.601 845.621 525.132 851.824C511.932 864.467 495.347 873.203 477.094 878.387V878.397C461.994 882.567 446.365 884.506 430.704 884.152C429.156 884.132 427.601 884.09 426.04 884.027C408.154 883.256 390.479 879.858 373.581 873.942C366.095 871.335 358.812 868.175 351.793 864.49C350.11 863.617 348.449 862.706 346.808 861.757C339.403 857.483 332.356 852.616 325.736 847.204C311.903 835.903 299.813 822.622 289.856 807.791C288.111 805.194 286.438 802.563 284.835 799.896C278.627 789.624 273.56 778.704 269.725 767.33C264.707 752.733 262.402 737.341 262.923 721.914C263.016 719.711 263.172 717.519 263.415 715.338L263.425 715.328C264.785 702.104 268.899 689.311 275.503 677.775C278.566 672.306 282.401 667.307 286.889 662.931C286.918 662.909 286.943 662.881 286.963 662.849C300.992 649.489 317.391 648.523 330.669 651.629C330.746 651.643 330.823 651.66 330.898 651.682C336.76 653.083 342.394 655.307 347.633 658.288C354 661.86 359.686 666.53 364.427 672.083C364.904 672.644 365.361 673.205 365.817 673.766L365.942 673.922C376.244 686.897 380.815 701.97 399.185 718.009L399.248 718.061C405.893 723.775 413.087 728.816 420.724 733.112C429.618 738.373 439.117 742.534 449.014 745.506C449.064 745.525 449.116 745.538 449.169 745.548C472.007 752.102 487.158 747.687 504.408 751.582L505.374 751.801C508.342 752.525 511.251 753.473 514.076 754.637H514.087C516.864 755.777 519.56 757.103 522.159 758.605C528.931 762.529 534.915 767.679 539.804 773.792C539.866 773.876 539.928 773.948 539.99 774.032C549.444 786.172 555.083 803.853 543.95 826.405Z" fill="black"/>
<path d="M543.008 826.559C532.95 846.786 515.329 862.182 494.949 871.484C489.137 874.115 483.137 876.307 476.998 878.042C476.734 878.117 476.139 878.287 476.139 878.641V878.652L476.998 878.053C451.265 885.303 423.614 885.393 397.52 879.981C371.876 874.664 347.669 863.845 327.246 847.365C307.701 831.57 291.665 811.87 280.161 789.524C268.349 766.507 261.436 740.109 264.478 714.183C265.894 701.829 269.7 689.87 275.683 678.97C281.385 668.662 289.383 659.253 300.279 654.274C320.372 645.092 345.261 653.895 360.16 668.766C367.111 675.703 371.865 684.268 376.993 692.544C382.764 702.175 389.954 710.881 398.321 718.367C407.471 726.179 417.58 732.792 428.404 738.046C438.356 743.114 449.018 746.647 460.027 748.524C470.568 750.214 481.183 749.718 491.795 750.378C496.432 750.618 501.035 751.305 505.54 752.427C511.29 753.939 516.798 756.256 521.899 759.31C530.97 764.57 538.475 772.153 543.643 781.279C548.365 789.905 550.102 799.85 548.583 809.567C547.587 815.477 545.708 821.205 543.009 826.557C542.833 826.917 544.639 826.767 544.892 826.249C549.9 816.008 552.491 804.507 550.147 793.186C548.17 783.635 542.907 775.098 536.058 768.259C527.921 760.14 517.752 754.358 506.616 751.52C497.107 749.147 487.322 749.372 477.605 749.085C465.915 748.895 454.331 746.84 443.289 742.997C431.418 738.616 420.181 732.675 409.874 725.332C400.188 718.619 391.689 710.339 384.727 700.831C378.943 692.824 374.489 683.952 368.657 675.982C356.063 658.767 334.216 647.427 312.64 650.11C301.973 651.527 292.107 656.535 284.665 664.31C276.082 673.099 270.195 684.62 266.498 696.249C258.511 721.404 261.554 748.745 270.759 773.15C279.993 797.134 294.322 818.827 312.754 836.731C321.963 845.815 332.196 853.797 343.248 860.517C354.576 867.272 366.681 872.628 379.299 876.468C404.867 884.435 431.893 886.583 458.399 882.756C464.738 881.81 471.012 880.466 477.183 878.73C477.446 878.656 478.041 878.485 478.041 878.131V878.12L477.183 878.719C498.948 872.499 519.413 860.966 533.852 843.252C538.151 838.011 541.855 832.309 544.895 826.251C545.069 825.891 543.266 826.042 543.008 826.559Z" fill="black"/>
<path d="M399.243 718.058C405.888 723.772 413.082 728.814 420.719 733.11C429.614 738.37 439.113 742.532 449.009 745.503C448.936 745.711 448.853 745.908 448.769 746.116C448.769 746.116 448.769 746.127 448.76 746.127C448.51 746.709 448.25 747.29 447.98 747.871C447.586 748.391 447.181 748.9 446.799 749.409C402.267 806.698 366.802 798.721 398.662 719.082C398.672 719.072 398.672 719.061 398.683 719.052C398.707 718.962 398.74 718.875 398.781 718.792C398.906 718.522 399.041 718.262 399.186 718.004" fill="white"/>
<path d="M398.51 718.609C410.216 728.654 423.493 736.707 437.81 742.444C441.295 743.858 444.85 745.094 448.46 746.146L448.099 745.393C446.866 748.665 444.278 751.36 442.068 754.045C439.988 756.574 437.847 759.051 435.646 761.478C431.847 765.697 427.791 769.676 423.5 773.393C417.612 778.435 410.776 783.602 403.083 785.418C398.268 786.555 393.377 785.604 390.512 781.287C386.632 775.444 387.073 767.201 387.824 760.573C389.277 747.74 393.398 735.218 397.999 723.212C398.588 721.472 399.286 719.771 400.09 718.119C400.598 717.177 398.671 717.155 398.271 717.899C397.405 719.685 396.654 721.524 396.021 723.406C395.303 725.286 394.607 727.175 393.933 729.071C392.677 732.607 391.503 736.173 390.435 739.771C388.636 745.652 387.251 751.652 386.291 757.728C385.182 765.154 384.415 774.017 388.063 780.919C390.629 785.783 395.625 787.829 400.958 787.176C408.645 786.233 415.689 781.524 421.63 776.85C431.375 769.177 439.77 759.765 447.362 750.002C448.441 748.684 449.307 747.204 449.927 745.616C449.959 745.544 449.975 745.465 449.974 745.386C449.973 745.306 449.954 745.228 449.92 745.156C449.886 745.085 449.836 745.021 449.775 744.97C449.714 744.92 449.643 744.883 449.566 744.862C435.121 740.662 421.423 733.44 409.189 724.747C406.006 722.484 402.938 720.072 399.984 717.511C399.345 716.954 397.69 717.889 398.519 718.611L398.51 718.609Z" fill="black"/>
<path d="M399.18 718.006C380.809 701.967 376.239 686.891 365.938 673.919C365.927 673.93 365.917 673.951 365.906 673.961C323.036 748.578 353.808 781.924 397.737 720.603C398.059 720.094 398.37 719.595 398.661 719.086C398.671 719.076 398.671 719.065 398.682 719.056C398.879 718.723 399.066 718.39 399.243 718.058" fill="white"/>
<path d="M400.066 717.645C393.912 712.246 388.429 706.128 383.734 699.421C379.895 693.944 376.597 688.129 373.037 682.475C371.126 679.394 369.052 676.417 366.824 673.558C366.474 673.116 365.326 673.558 365.058 673.92C363.95 675.605 362.963 677.366 362.104 679.191C361.166 680.918 360.25 682.658 359.357 684.41C357.63 687.794 355.997 691.224 354.459 694.7C351.765 700.735 349.488 706.947 347.643 713.293C345.176 721.951 343.247 731.599 344.999 740.588C346.032 745.893 348.864 751.161 354.443 752.61C360.886 754.284 367.811 750.903 373.019 747.403C382.651 740.93 390.425 731.766 397.247 722.491C398.306 721.082 399.267 719.602 400.121 718.06C400.525 717.316 398.639 717.551 398.362 718.06C396.653 720.994 394.703 723.781 392.534 726.392C390.575 728.904 388.542 731.359 386.418 733.733C382.885 737.757 378.995 741.453 374.794 744.774C369.923 748.548 363.3 752.895 356.789 751.877C351.415 751.037 348.399 746.286 347.181 741.354C345.158 733.156 346.667 724.197 348.697 716.161C351.982 703.148 357.582 690.738 363.976 678.983C364.802 677.23 365.752 675.537 366.817 673.918L365.051 674.28C368.938 679.467 372.508 684.884 375.741 690.502C379.337 696.598 383.405 702.402 387.907 707.863C391.108 711.614 394.579 715.125 398.294 718.367C398.767 718.782 400.536 718.056 400.066 717.645Z" fill="black"/>
<path d="M365.813 673.762C365.222 675.019 364.566 676.297 363.829 677.564C330.804 739.571 287.862 728.445 326.93 658.918C328.243 656.279 329.566 653.866 330.899 651.678C336.76 653.079 342.394 655.304 347.633 658.284C354 661.856 359.686 666.526 364.427 672.079C364.899 672.641 365.356 673.202 365.813 673.762Z" fill="white"/>
<path d="M364.898 673.633C361.901 679.81 358.43 685.747 354.516 691.388C351.422 695.969 347.969 700.296 344.189 704.328C339.174 709.612 332.967 715.111 325.729 716.972C321.152 718.154 316.608 717.007 314.247 712.668C312.981 710.086 312.336 707.245 312.363 704.37C312.33 700.254 312.833 696.152 313.857 692.167C316.887 679.439 323.11 667.885 329.196 656.419C330.024 654.856 330.898 653.318 331.816 651.806L330.582 652.405C344.11 655.716 356.182 663.37 364.95 674.194C365.529 674.904 367.328 674.122 366.685 673.332C357.634 662.188 345.175 654.324 331.222 650.95C330.98 650.913 330.733 650.95 330.512 651.057C330.292 651.164 330.109 651.335 329.988 651.548C327.945 654.909 326.18 658.431 324.311 661.887C322.515 665.212 320.807 668.582 319.222 672.019C316.556 677.658 314.356 683.506 312.644 689.504C311.357 693.861 310.613 698.361 310.429 702.9C310.252 706.1 310.758 709.301 311.915 712.29C314 717.129 318.56 719.478 323.736 718.815C331.042 717.883 337.538 712.927 342.726 708.02C351.429 699.786 358.24 689.645 363.952 679.169C364.905 677.421 365.877 675.687 366.733 673.887C367.206 672.889 365.285 672.819 364.898 673.633Z" fill="black"/>
<path d="M330.669 651.627C305.06 700.071 273.977 709.239 284.819 665.255C285.508 664.446 286.19 663.68 286.886 662.928C286.915 662.906 286.94 662.878 286.96 662.846C300.988 649.486 317.387 648.52 330.669 651.627Z" fill="white"/>
<path d="M329.729 651.786C324.123 662.362 317.606 672.674 309.393 681.434C306.545 684.568 303.354 687.373 299.88 689.795C297.606 691.325 294.999 692.832 292.227 693.161C286.911 693.792 284.425 688.916 283.8 684.37C283.359 680.277 283.529 676.141 284.305 672.099C284.51 670.851 284.744 669.61 285.007 668.374C285.134 667.774 285.265 667.176 285.4 666.579C285.618 665.548 286.123 664.601 286.856 663.846C289.035 661.486 291.5 659.406 294.194 657.656C304.801 650.544 317.622 649.175 329.888 652.009C330.345 652.085 330.815 652.003 331.219 651.775C331.374 651.689 331.881 651.345 331.443 651.244C320.335 648.678 308.576 649.367 298.234 654.394C295.263 655.842 292.456 657.603 289.859 659.647C288.672 660.579 287.508 661.552 286.413 662.596C285.854 663.131 285.342 663.713 284.829 664.293C284.206 664.9 283.778 665.68 283.603 666.532C282.329 671.456 281.672 676.519 281.649 681.605C281.747 686.705 283.198 693.383 289.295 693.993C292.198 694.123 295.08 693.454 297.629 692.058C301.085 690.267 304.269 687.994 307.087 685.31C317.38 675.913 325.123 663.69 331.598 651.467C331.77 651.163 329.995 651.286 329.729 651.786Z" fill="black"/>
<path d="M504.403 751.58C504.013 752.61 503.548 753.61 503.012 754.572C458.666 828.306 414.571 817.616 446.797 749.409C447.409 748.266 448.064 747.175 448.76 746.127C448.769 746.127 448.77 746.116 448.77 746.116C448.895 745.919 449.019 745.732 449.163 745.545C472.001 752.1 487.154 747.684 504.403 751.58Z" fill="white"/>
<path d="M503.502 751.503C502.091 755.175 499.689 758.502 497.554 761.783C495.457 764.999 493.277 768.162 491.011 771.271C487.07 776.701 482.774 781.865 478.153 786.73C471.793 793.365 464.398 799.981 455.677 803.293C450.864 805.119 444.879 805.728 440.959 801.727C436.399 797.073 436.324 789.419 436.944 783.378C438.136 771.759 442.489 760.326 447.514 749.875C448.235 748.384 449.089 746.96 450.065 745.622L448.603 746.14C456.306 748.295 464.226 749.579 472.215 749.968C478.969 750.328 485.742 750.174 492.493 750.621C496.31 750.849 500.105 751.37 503.843 752.176C504.079 752.239 504.327 752.239 504.563 752.176C504.799 752.112 505.014 751.988 505.187 751.816C505.419 751.508 505.427 751.087 504.964 750.984C491.518 747.99 477.616 749.663 464.022 747.906C459.189 747.278 454.411 746.29 449.725 744.952C449.458 744.882 449.175 744.894 448.914 744.987C448.654 745.079 448.427 745.248 448.264 745.472C446.265 748.468 444.606 751.677 443.319 755.041C441.968 758.18 440.716 761.36 439.589 764.586C437.679 769.865 436.267 775.311 435.371 780.852C434.371 787.505 433.958 795.871 438.331 801.53C441.927 806.18 447.984 806.703 453.327 805.324C462.012 803.082 469.576 797.015 475.954 790.963C486.405 781.044 494.986 769.175 502.519 756.947C503.609 755.277 504.542 753.509 505.304 751.666C505.677 750.689 503.777 750.791 503.502 751.503Z" fill="black"/>
<path d="M539.796 773.79C538.477 776.178 536.912 778.689 535.102 781.321C493.353 849.262 462.758 817.15 500.872 758.125C502.202 755.9 503.705 753.785 505.369 751.798C508.338 752.522 511.247 753.47 514.071 754.634H514.082C516.859 755.774 519.555 757.1 522.154 758.602C528.925 762.527 534.908 767.677 539.796 773.79Z" fill="white"/>
<path d="M538.914 773.785C537.08 777.085 534.946 780.185 532.935 783.381C530.924 786.577 528.831 789.708 526.63 792.771C523.031 797.876 519.031 802.686 514.667 807.155C511.515 810.437 507.974 813.322 504.123 815.745C501.555 817.442 498.637 818.537 495.587 818.95C490.517 819.401 486.907 815.98 485.46 811.353C483.215 804.178 484.854 795.986 486.916 788.979C488.726 783 491.078 777.199 493.943 771.649C495.655 768.271 497.516 764.97 499.488 761.738C501.495 758.265 503.756 754.944 506.251 751.803L504.782 752.295C518.243 755.65 530.232 763.329 538.91 774.155C539.294 774.636 541.124 773.983 540.682 773.426C531.841 762.448 519.642 754.677 505.958 751.304C505.692 751.26 505.418 751.282 505.162 751.367C504.906 751.453 504.675 751.6 504.489 751.796C502.165 754.715 500.052 757.796 498.166 761.015C496.302 764.034 494.536 767.114 492.893 770.259C490.123 775.479 487.777 780.912 485.876 786.506C483.371 794.042 481.304 802.815 483.245 810.729C484.491 815.811 487.962 819.807 493.433 820.012C500.712 820.284 507.601 815.24 512.761 810.664C522.992 801.589 530.456 790.015 537.793 778.609C538.806 777.034 539.767 775.429 540.678 773.794C541.095 773.044 539.204 773.265 538.914 773.785Z" fill="black"/>
<path d="M543.95 826.405C516.024 848.002 511.672 817.248 539.982 774.029C549.444 786.173 555.083 803.853 543.95 826.405Z" fill="white"/>
<path d="M543.194 826.272C538.506 829.88 527.466 837.575 523.181 829.29C521.346 825.745 521.525 821.322 522.021 817.484C522.938 811.38 524.636 805.419 527.072 799.748C530.834 790.753 535.453 782.141 540.863 774.032L539.097 774.392C542.978 779.309 545.861 784.936 547.584 790.959C549.474 798.002 549.623 805.4 548.019 812.514C546.914 817.372 545.228 822.079 542.999 826.533C542.75 827.04 544.61 826.86 544.895 826.276C548.597 818.716 551.025 810.516 551.038 802.048C551.031 795.256 549.454 788.558 546.429 782.478C544.872 779.362 543.009 776.41 540.865 773.665C540.529 773.231 539.346 773.647 539.098 774.026C533.996 781.707 529.579 789.821 525.897 798.276C523.137 804.395 521.208 810.856 520.16 817.486C519.614 821.523 519.359 826.295 521.387 830.001C522.144 831.36 523.287 832.462 524.672 833.168C526.057 833.875 527.621 834.153 529.164 833.967C534.938 833.591 540.276 829.95 544.711 826.537C545.071 826.26 544.856 826.038 544.544 825.912C544.306 825.872 544.063 825.884 543.83 825.946C543.597 826.008 543.381 826.119 543.194 826.272Z" fill="black"/>
<path d="M351.793 864.49C350.11 863.617 348.449 862.706 346.808 861.757C339.403 857.483 332.356 852.616 325.736 847.204C311.903 835.903 299.813 822.622 289.856 807.791C288.111 805.194 286.438 802.563 284.835 799.896C278.627 789.624 273.56 778.704 269.725 767.33C264.707 752.733 262.402 737.341 262.923 721.914C289.436 713.167 328.68 726.942 335.899 772.337C375.346 795.17 368.482 844.043 351.793 864.49Z" fill="url(#paint0_linear_1082_0)"/>
<path d="M352.334 863.821C332.456 853.461 315.022 838.357 300.877 821.043C286.448 803.38 275.043 782.917 268.786 760.928C265.084 748.246 263.433 735.053 263.896 721.849L263.115 722.599C274.435 719.053 286.615 719.395 297.718 723.572C310.436 728.354 320.985 737.595 327.402 749.575C329.274 753.045 330.828 756.677 332.046 760.427C332.698 762.415 333.265 764.429 333.748 766.468C333.999 767.527 334.229 768.591 334.437 769.659C334.532 770.142 334.622 770.627 334.707 771.113C334.719 771.679 334.831 772.238 335.039 772.764C335.396 773.087 335.804 773.348 336.248 773.535C336.698 773.807 337.146 774.084 337.589 774.367C338.46 774.921 339.317 775.496 340.161 776.092C341.786 777.241 343.352 778.468 344.859 779.773C347.761 782.287 350.391 785.098 352.706 788.16C361.074 799.237 364.627 813.17 364 826.926C363.457 838.853 360.052 851.185 353.277 861.116C352.559 862.17 351.797 863.191 350.993 864.181C350.227 865.125 352.021 865.504 352.598 864.794C360.132 855.517 364.203 843.427 365.544 831.668C367.109 817.925 364.72 803.629 357.459 791.736C353.403 785.173 348.061 779.499 341.754 775.056C340.914 774.459 340.061 773.883 339.195 773.327C338.371 772.798 336.961 772.325 336.739 771.34C336.247 769.148 335.909 766.93 335.354 764.748C334.337 760.717 332.968 756.783 331.261 752.992C325.545 740.081 315.328 729.692 302.517 723.763C291.312 718.667 278.748 717.38 266.743 720.098C265.395 720.415 264.061 720.793 262.745 721.224C262.423 721.329 261.98 721.579 261.963 721.975C260.973 745.508 267.458 768.811 278.072 789.672C288.405 809.891 302.436 827.993 319.437 843.04C329.103 851.679 339.787 859.106 351.253 865.155C352.07 865.582 353.416 864.385 352.334 863.821Z" fill="black"/>
<path d="M307.59 727.371C325.642 738.173 339.426 760.399 336.733 796.534L307.59 727.371Z" fill="url(#paint1_linear_1082_0)"/>
<path d="M306.843 727.867C314.216 732.326 320.466 738.421 325.109 745.681C330.571 754.493 334.037 764.394 335.265 774.689C336.19 781.966 336.362 789.319 335.777 796.631C335.714 797.494 337.636 797.161 337.689 796.434C339.257 774.893 335.21 751.686 319.568 735.729C316.214 732.314 312.44 729.339 308.337 726.875C307.732 726.511 306.006 727.367 306.843 727.868V727.867Z" fill="black"/>
<g opacity="0.5">
<path opacity="0.5" d="M198.772 552.053C199.416 552.053 200.814 551.085 199.542 551.085C198.898 551.085 197.5 552.053 198.772 552.053Z" fill="black"/>
</g>
<path d="M232.169 249.054C232.169 351.838 354.549 398.781 541.029 398.781C727.509 398.781 851.825 338.588 851.825 235.805C851.825 133.022 727.514 38.6946 541.029 38.6946C354.544 38.6946 232.169 146.27 232.169 249.054Z" fill="white"/>
<path d="M231 249.191C230.838 268.12 235.531 286.774 244.631 303.368C254.082 320.221 268.004 334.03 283.759 345.029C302.66 358.221 324.059 367.555 345.894 374.694C373.023 383.566 401.189 389.096 429.456 392.829C462.745 397.05 496.26 399.249 529.815 399.414C564.587 399.949 599.355 398.098 633.874 393.873C663.26 390.113 692.503 384.29 720.721 375.174C744.222 367.582 767.201 357.701 787.921 344.149C805.156 332.878 820.892 318.92 832.57 301.847C843.461 286.002 850.25 267.698 852.325 248.579C854.335 228.338 851.611 207.906 844.371 188.9C836.752 168.585 824.575 150.185 809.937 134.257C793.097 115.934 773.005 100.741 751.511 88.3021C726.62 74.1208 700.079 63.0601 672.488 55.3697C640.645 46.4388 607.934 40.9652 574.92 39.0432C539.971 36.6861 504.868 38.1732 470.242 43.4776C439.524 48.2135 409.487 56.6266 380.775 68.5361C355.579 78.9651 331.863 92.6623 310.234 109.276C291.035 123.953 274.22 141.514 260.386 161.335C248.237 179.054 238.895 198.884 234.248 219.919C232.119 229.532 231.03 239.345 231 249.191C231 250.192 233.338 249.714 233.34 248.911C233.439 205.388 255.159 165.115 284.712 134.299C322.746 94.6403 373.567 68.7056 426.117 54.2538C491.383 36.3056 561.618 35.0348 628.093 46.8107C683.31 56.592 738.518 76.6146 782.721 111.923C816.321 138.763 843.86 175.888 849.568 219.47C852.229 238.852 850.1 258.591 843.367 276.958C836.474 295.329 824.709 311.47 810.411 324.785C774.176 358.532 724.381 375.429 676.822 385.407C611.193 399.178 542.854 400.528 476.146 395.976C445.623 393.895 415.13 390.185 385.228 383.612C360.542 378.189 336.087 370.822 313.258 359.853C278.048 342.94 246.281 315.838 236.599 276.519C234.416 267.48 233.322 258.213 233.34 248.914C233.338 247.912 231 248.393 231 249.191Z" fill="black"/>
<path d="M425.926 388.746C422.636 411.125 409.117 426.899 385.386 426.899C361.655 426.899 342.426 411.28 342.426 387.536C342.426 363.792 361.66 349.383 385.386 349.383C409.112 349.383 429.379 365.255 425.926 388.746Z" fill="white"/>
<path d="M424.756 388.887C423.739 396.968 420.825 404.693 416.251 411.43C411.856 417.638 405.535 422.219 398.271 424.462C382.562 429.227 363.443 424.646 352.56 412.096C341.861 399.751 340.43 380.116 349.753 366.572C359.306 352.691 377.929 347.959 393.875 350.849C402.056 352.189 409.655 355.934 415.705 361.607C421.342 367.061 424.7 374.452 425.101 382.288C425.193 384.494 425.077 386.703 424.754 388.887C424.621 389.828 426.977 389.425 427.093 388.605C428.42 380.188 426.362 371.589 421.369 364.687C416.349 357.895 408.828 353.329 400.835 350.89C384.51 345.905 364.131 349.075 351.786 361.449C339.565 373.699 337.925 394.023 347.069 408.55C356.493 423.514 375.635 429.628 392.558 427.027C400.671 425.894 408.22 422.227 414.129 416.548C419.862 410.625 423.883 403.258 425.766 395.23C426.321 393.046 426.763 390.836 427.09 388.607C427.237 387.668 424.88 388.066 424.756 388.887Z" fill="black"/>
<path d="M319.533 456.232C307.146 459.145 297.087 457.273 294.276 448.96C291.464 440.648 297.557 431.074 310.285 426.761C323.014 422.447 333.02 426.568 335.829 434.879C338.638 443.19 332.535 453.175 319.533 456.232Z" fill="white"/>
<path d="M319.448 455.916C312.473 457.523 302.458 458.507 297.362 452.189C293.034 446.823 294.648 439.407 298.852 434.535C304.48 428.013 314.543 424.263 323.037 425.8C329.623 426.991 335.216 432.093 335.33 439.08C335.475 447.95 327.284 454.01 319.447 455.916C319.255 455.962 318.278 456.224 318.359 456.545C318.44 456.866 319.468 456.584 319.612 456.545C327.307 454.674 335.589 449.848 337.358 441.496C338.959 433.939 333.798 427.287 326.66 425.319C322.21 424.258 317.564 424.345 313.156 425.573C308.442 426.671 304.003 428.726 300.114 431.61C294.261 436.097 290.045 444.027 293.925 451.166C298.722 459.987 311.531 458.408 319.612 456.545C319.804 456.5 320.78 456.234 320.7 455.916C320.62 455.598 319.592 455.882 319.448 455.916Z" fill="black"/>
<path d="M232.169 249.054C232.169 351.838 354.549 398.781 541.029 398.781C727.509 398.781 851.825 338.588 851.825 235.805C851.825 133.022 727.514 38.6946 541.029 38.6946C354.544 38.6946 232.169 146.27 232.169 249.054Z" fill="white"/>
<path d="M231 249.191C230.838 268.12 235.531 286.774 244.631 303.368C254.082 320.221 268.004 334.03 283.759 345.029C302.66 358.221 324.059 367.555 345.894 374.694C373.023 383.566 401.189 389.096 429.456 392.829C462.745 397.05 496.26 399.249 529.815 399.414C564.587 399.949 599.355 398.098 633.874 393.873C663.26 390.113 692.503 384.29 720.721 375.174C744.222 367.582 767.201 357.701 787.921 344.149C805.156 332.878 820.892 318.92 832.57 301.847C843.461 286.002 850.25 267.698 852.325 248.579C854.335 228.338 851.611 207.906 844.371 188.9C836.752 168.585 824.575 150.185 809.937 134.257C793.097 115.934 773.005 100.741 751.511 88.3021C726.62 74.1208 700.079 63.0601 672.488 55.3697C640.645 46.4388 607.934 40.9652 574.92 39.0432C539.971 36.6861 504.868 38.1732 470.242 43.4776C439.524 48.2135 409.487 56.6266 380.775 68.5361C355.579 78.9651 331.863 92.6623 310.234 109.276C291.035 123.953 274.22 141.514 260.386 161.335C248.237 179.054 238.895 198.884 234.248 219.919C232.119 229.532 231.03 239.345 231 249.191C231 250.192 233.338 249.714 233.34 248.911C233.439 205.388 255.159 165.115 284.712 134.299C322.746 94.6403 373.567 68.7056 426.117 54.2538C491.383 36.3056 561.618 35.0348 628.093 46.8107C683.31 56.592 738.518 76.6146 782.721 111.923C816.321 138.763 843.86 175.888 849.568 219.47C852.229 238.852 850.1 258.591 843.367 276.958C836.474 295.329 824.709 311.47 810.411 324.785C774.176 358.532 724.381 375.429 676.822 385.407C611.193 399.178 542.854 400.528 476.146 395.976C445.623 393.895 415.13 390.185 385.228 383.612C360.542 378.189 336.087 370.822 313.258 359.853C278.048 342.94 246.281 315.838 236.599 276.519C234.416 267.48 233.322 258.213 233.34 248.914C233.338 247.912 231 248.393 231 249.191Z" fill="black"/>
<path d="M425.926 388.746C422.636 411.125 409.117 426.899 385.386 426.899C361.655 426.899 342.426 411.28 342.426 387.536C342.426 363.792 361.66 349.383 385.386 349.383C409.112 349.383 429.379 365.255 425.926 388.746Z" fill="white"/>
<path d="M424.756 388.887C423.739 396.968 420.825 404.693 416.251 411.43C411.856 417.638 405.535 422.219 398.271 424.462C382.562 429.227 363.443 424.646 352.56 412.096C341.861 399.751 340.43 380.116 349.753 366.572C359.306 352.691 377.929 347.959 393.875 350.849C402.056 352.189 409.655 355.934 415.705 361.607C421.342 367.061 424.7 374.452 425.101 382.288C425.193 384.494 425.077 386.703 424.754 388.887C424.621 389.828 426.977 389.425 427.093 388.605C428.42 380.188 426.362 371.589 421.369 364.687C416.349 357.895 408.828 353.329 400.835 350.89C384.51 345.905 364.131 349.075 351.786 361.449C339.565 373.699 337.925 394.023 347.069 408.55C356.493 423.514 375.635 429.628 392.558 427.027C400.671 425.894 408.22 422.227 414.129 416.548C419.862 410.625 423.883 403.258 425.766 395.23C426.321 393.046 426.763 390.836 427.09 388.607C427.237 387.668 424.88 388.066 424.756 388.887Z" fill="black"/>
<path d="M319.533 456.232C307.146 459.145 297.087 457.273 294.276 448.96C291.464 440.648 297.557 431.074 310.285 426.761C323.014 422.447 333.02 426.568 335.829 434.879C338.638 443.19 332.535 453.175 319.533 456.232Z" fill="white"/>
<path d="M319.448 455.916C312.473 457.523 302.458 458.507 297.362 452.189C293.034 446.823 294.648 439.407 298.852 434.535C304.48 428.013 314.543 424.263 323.037 425.8C329.623 426.991 335.216 432.093 335.33 439.08C335.475 447.95 327.284 454.01 319.447 455.916C319.255 455.962 318.278 456.224 318.359 456.545C318.44 456.866 319.468 456.584 319.612 456.545C327.307 454.674 335.589 449.848 337.358 441.496C338.959 433.939 333.798 427.287 326.66 425.319C322.21 424.258 317.564 424.345 313.156 425.573C308.442 426.671 304.003 428.726 300.114 431.61C294.261 436.097 290.045 444.027 293.925 451.166C298.722 459.987 311.531 458.408 319.612 456.545C319.804 456.5 320.78 456.234 320.7 455.916C320.62 455.598 319.592 455.882 319.448 455.916Z" fill="black"/>
<path d="M340.029 287.063C338.261 280.81 338.761 274.141 341.44 268.216C344.12 262.291 348.809 257.485 354.693 254.634C360.577 251.784 367.283 251.069 373.643 252.614C380.004 254.16 385.616 257.868 389.505 263.093C390.09 257.548 392.356 252.309 396.005 248.067C399.655 243.825 404.515 240.781 409.945 239.334C424.829 235.201 439.03 245.101 442.112 256.019C443.522 260.82 443.267 265.951 441.388 270.591C436.182 283.491 414.2 306.218 424.013 320.375C383.047 326.408 343.346 308.555 340.029 287.063Z" fill="url(#paint2_linear_1082_0)"/>
<path d="M341.028 286.797C339.785 282.327 339.689 277.619 340.749 273.102C341.809 268.585 343.992 264.403 347.098 260.937C350.516 257.17 354.967 254.472 359.905 253.172C364.844 251.872 370.058 252.025 374.91 253.614C380.37 255.429 385.137 258.86 388.571 263.444C388.833 263.789 390.455 263.36 390.499 262.931C390.999 258.126 392.782 253.541 395.664 249.648C398.547 245.754 402.425 242.694 406.897 240.782C416.815 236.644 428.291 239.532 435.656 247.145C439.125 250.662 441.312 255.226 441.873 260.114C442.467 265.366 440.949 270.222 438.458 274.78C434.399 282.196 429.29 288.991 425.383 296.494C421.638 303.693 417.944 313.158 423.021 320.637L424.195 319.96C409.148 322.178 393.799 321.24 379.14 317.208C367.806 314.042 356.141 308.843 348.031 300.115C344.426 296.456 341.99 291.823 341.028 286.797C340.953 286.33 338.938 286.766 339.029 287.328C340.656 297.446 349.365 304.958 357.813 309.886C369.694 316.818 383.536 320.37 397.197 321.568C406.083 322.338 415.029 322.075 423.854 320.786C423.937 320.774 425.245 320.432 425.026 320.11C420.172 312.961 423.391 304.036 426.91 297.056C430.911 289.12 436.34 282.024 440.56 274.225C443.102 269.53 444.532 264.476 443.811 259.11C443.11 254.155 440.77 249.571 437.158 246.077C433.462 242.454 428.828 239.914 423.768 238.737C418.708 237.56 413.419 237.792 408.483 239.407C397.789 242.858 389.685 252.044 388.515 263.255L390.443 262.742C387.102 258.38 382.574 255.055 377.391 253.159C372.208 251.263 366.587 250.876 361.189 252.042C356.279 253.048 351.711 255.287 347.922 258.542C344.132 261.798 341.248 265.963 339.543 270.638C337.676 276.022 337.496 281.84 339.026 287.328C339.168 287.832 341.168 287.304 341.028 286.797Z" fill="black"/>
<path d="M359.423 252.846C363.24 251.787 367.24 251.543 371.158 252.131C375.077 252.719 378.825 254.125 382.156 256.256C385.486 258.387 388.322 261.195 390.476 264.494C392.63 267.792 394.054 271.507 394.653 275.392" fill="url(#paint3_linear_1082_0)"/>
<path d="M359.526 253.216C365.331 251.733 371.465 252.168 376.997 254.455C382.53 256.743 387.159 260.757 390.181 265.89C391.929 268.911 393.107 272.222 393.656 275.662C393.737 276.154 395.751 275.711 395.655 275.13C394.629 268.937 391.562 263.256 386.934 258.975C382.306 254.694 376.378 252.054 370.076 251.468C366.461 251.168 362.82 251.51 359.325 252.477C359.126 252.531 358.308 252.779 358.425 253.112C358.542 253.444 359.313 253.273 359.525 253.215L359.526 253.216Z" fill="black"/>
<path d="M401.901 249.347C404.435 246.376 408.119 244.719 411.836 245.817C417.357 247.448 418.252 254.607 409.055 261.395C407.939 262.216 406.966 262.986 406.11 263.712C405.223 264.467 404.115 264.92 402.95 265.005C401.784 265.09 400.621 264.802 399.633 264.184C398.644 263.566 397.881 262.649 397.456 261.57C397.031 260.49 396.967 259.303 397.272 258.184C398.156 254.943 399.735 251.928 401.901 249.347Z" fill="white"/>
<path d="M347.039 266.728C348.74 262.786 352.08 259.86 356.353 259.826C362.7 259.776 365.978 267.028 358.5 277.127C356.443 279.77 354.722 282.653 353.374 285.711C353.067 286.453 352.532 287.08 351.843 287.501C351.155 287.922 350.35 288.116 349.544 288.054C348.738 287.993 347.972 287.68 347.357 287.16C346.742 286.639 346.308 285.939 346.12 285.159C344.771 279.802 344.271 273.14 347.039 266.728Z" fill="white"/>
<path d="M382.356 136.07C381.574 132.649 379.636 129.615 376.88 127.496C374.124 125.377 370.724 124.308 367.272 124.473C363.82 124.639 360.534 126.029 357.986 128.402C355.439 130.775 353.791 133.981 353.329 137.462C351.639 134.984 349.25 133.085 346.476 132.015C343.702 130.945 340.674 130.755 337.792 131.469C329.846 133.347 325.809 141.703 327.176 147.676C327.752 150.316 329.182 152.684 331.239 154.4C336.948 159.175 352.936 164.282 352.018 173.526C372.521 165.82 386.321 147.116 382.356 136.07Z" fill="url(#paint4_linear_1082_0)"/>
<path d="M383.326 135.805C382.666 133.043 381.27 130.518 379.289 128.51C377.309 126.502 374.822 125.088 372.102 124.424C369.372 123.798 366.531 123.875 363.837 124.647C361.143 125.419 358.682 126.863 356.676 128.847C354.347 131.222 352.836 134.299 352.368 137.618L354.237 137.108C347.338 127.101 331.227 129.211 326.891 140.536C325.889 143.02 325.706 145.768 326.369 148.366C327.033 150.965 328.506 153.276 330.57 154.952C334.136 157.812 338.473 159.643 342.319 162.071C346.284 164.577 351.506 168.277 351.057 173.68C351.011 174.236 352.125 173.918 352.373 173.823C359.987 170.964 366.952 166.565 372.845 160.892C377.517 156.349 381.853 150.651 383.461 144.167C384.227 141.427 384.18 138.518 383.327 135.804C383.134 135.251 381.213 135.83 381.388 136.333C383.142 141.378 381.221 146.9 378.71 151.315C375.011 157.482 370.012 162.738 364.072 166.704C360.211 169.381 356.045 171.573 351.664 173.231L352.98 173.375C353.322 169.257 350.552 166.098 347.54 163.732C343.936 160.903 339.803 158.891 335.885 156.57C334.112 155.62 332.481 154.418 331.042 153.001C329.16 150.966 328.045 148.322 327.895 145.534C327.848 143.061 328.441 140.62 329.615 138.454C330.789 136.288 332.503 134.474 334.585 133.194C340.674 129.557 348.534 132.188 352.421 137.826C352.687 138.21 354.227 137.762 354.291 137.316C355.27 130.544 360.745 124.816 367.708 124.918C370.906 125.033 373.977 126.214 376.449 128.278C378.92 130.342 380.656 133.175 381.387 136.34C381.515 136.867 383.46 136.362 383.326 135.805Z" fill="black"/>
<path d="M364.624 124.848C362.587 125.33 360.674 126.246 359.011 127.535C357.349 128.824 355.974 130.458 354.979 132.327C353.984 134.196 353.39 136.259 353.237 138.378C353.085 140.498 353.377 142.627 354.094 144.623" fill="url(#paint5_linear_1082_0)"/>
<path d="M364.501 124.377C362.37 124.879 360.361 125.815 358.597 127.13C356.833 128.445 355.351 130.111 354.241 132.026C353.158 133.964 352.498 136.116 352.305 138.336C352.112 140.556 352.392 142.792 353.124 144.892C353.351 145.552 355.277 144.985 355.063 144.364C352.344 136.464 356.529 127.342 364.749 125.322C365.019 125.254 365.698 124.981 365.594 124.589C365.489 124.196 364.752 124.316 364.501 124.377Z" fill="black"/>
<path d="M519.65 230.047C478.188 221.274 471.065 197.005 469.639 189.219C468.676 183.961 468.761 178.565 469.889 173.34C471.016 168.115 473.164 163.162 476.211 158.765C479.257 154.368 483.142 150.613 487.643 147.713C492.144 144.814 497.174 142.827 502.445 141.867C519.167 138.819 535.664 146.994 544.357 160.396C544.758 160.625 544.758 160.23 544.966 160.352C546.1 154.535 548.497 149.036 551.99 144.242C555.482 139.447 559.985 135.474 565.181 132.601C570.377 129.727 576.141 128.024 582.068 127.61C587.995 127.196 593.94 128.082 599.487 130.205C609.208 133.256 620.328 139.857 633.007 151.684C673.464 189.417 688.928 190.229 741.154 160.718C663.778 248.201 675.341 302.679 584.758 319.188C507.166 333.329 485.751 298.492 487.203 268.235C488.022 251.084 501.455 238.464 519.65 230.047Z" fill="url(#paint6_linear_1082_0)"/>
<path d="M520.246 229.533C507.381 226.784 494.489 221.927 484.603 213.008C478.896 207.964 474.569 201.554 472.03 194.382C468.948 185.175 469.307 175.167 473.041 166.203C475.651 159.931 479.827 154.43 485.172 150.224C490.516 146.018 496.852 143.246 503.574 142.173C518.66 139.928 534.031 147.232 542.669 159.597C543.04 160.129 543.295 160.857 543.994 160.978C544.503 161.041 545.018 160.909 545.434 160.609L544.243 160.85L544.369 160.862C544.809 160.908 545.813 160.797 545.929 160.224C549.083 144.64 561.341 131.82 577.111 128.752C586.499 126.926 595.694 129.019 604.332 132.76C612.069 136.277 619.266 140.872 625.708 146.408C632.713 152.221 639.123 158.703 646.191 164.454C651.378 168.807 656.968 172.656 662.887 175.949C667.703 178.607 672.919 180.468 678.332 181.46C683.685 182.327 689.147 182.272 694.481 181.299C709.013 178.761 722.562 171.546 735.356 164.544C737.496 163.373 739.627 162.187 741.749 160.985L740.255 160.699C727.888 174.7 716.408 189.456 705.881 204.881C697.503 217.153 689.773 229.837 682.093 242.548C675.801 252.963 669.527 263.436 662.278 273.229C655.85 282.176 648.171 290.159 639.474 296.935C629.562 304.244 618.466 309.801 606.668 313.364C599.207 315.679 591.602 317.509 583.903 318.843C574.603 320.563 565.185 321.571 555.732 321.858C542.256 322.173 528.264 320.736 515.91 315.014C507.133 311.096 499.753 304.616 494.742 296.429C490.54 289.116 488.261 280.861 488.118 272.432C487.788 266.025 489.153 259.644 492.078 253.93C495.864 246.852 501.898 241.217 508.531 236.805C512.195 234.392 516.037 232.261 520.025 230.429C521.243 229.862 520.126 229.265 519.27 229.664C505.01 236.296 490.162 246.959 486.856 263.311C485.067 272.162 486.373 282.15 489.667 290.506C493.08 299.089 499.013 306.444 506.688 311.606C516.837 318.477 529.096 321.489 541.181 322.53C558.822 324.055 576.872 321.711 594.06 317.771C607.251 314.747 620.231 310.291 631.901 303.363C641.571 297.532 650.219 290.16 657.499 281.539C665.255 272.487 671.734 262.426 677.97 252.299C685.451 240.15 692.662 227.841 700.409 215.851C710.115 200.764 720.69 186.251 732.083 172.386C735.337 168.443 738.658 164.557 742.046 160.728C742.647 160.047 740.783 160.311 740.552 160.441C732.646 164.903 724.662 169.26 716.39 173.008C710.195 175.944 703.708 178.222 697.036 179.808C691.589 181.068 685.958 181.328 680.417 180.575C674.855 179.671 669.491 177.819 664.558 175.1C658.459 171.713 652.709 167.734 647.393 163.221C640.235 157.346 633.735 150.725 626.557 144.881C620.163 139.495 613.038 135.037 605.393 131.64C597.098 128.126 588.327 126.102 579.299 127.399C570.692 128.554 562.662 132.363 556.333 138.293C550.003 144.224 545.69 151.98 543.998 160.476L545.559 159.842C545.096 159.8 544.63 159.885 544.212 160.089L545.361 160.012C544.795 159.837 544.009 158.205 543.641 157.716C543.078 156.966 542.489 156.233 541.875 155.52C540.648 154.097 539.328 152.757 537.922 151.51C535.166 149.062 532.108 146.974 528.823 145.297C522.154 141.886 514.687 140.327 507.207 140.786C500.368 141.248 493.743 143.359 487.902 146.936C482.06 150.514 477.176 155.452 473.668 161.326C470.894 166.041 469.093 171.262 468.372 176.682C467.65 182.102 468.023 187.611 469.467 192.885C471.5 199.806 475.203 206.125 480.253 211.286C488.975 220.344 500.794 225.785 512.791 229.055C514.864 229.619 516.955 230.115 519.056 230.565C519.657 230.688 521.326 229.764 520.246 229.533Z" fill="black"/>
<path d="M756.272 144.198L743.202 157.501C742.366 158.352 741.547 159.228 740.69 160.058C738.919 161.64 737.065 163.129 735.138 164.518C729.25 169.13 723.258 173.612 717.135 177.909C699.894 190.009 681.348 201.123 661.124 207.463C648.652 211.309 635.626 213.059 622.578 212.639C612.171 212.372 601.763 211.106 591.349 211.908C585.954 212.309 580.622 213.317 575.455 214.914C572.074 215.976 568.77 217.267 565.566 218.778C562.184 220.368 558.951 222.248 555.57 223.838C548.959 227.085 541.874 229.269 534.579 230.307C530.403 230.924 526.151 230.8 522.018 229.942C521.396 229.811 520.787 229.626 520.198 229.39C519.36 229.03 517.956 230.231 519.089 230.718C521.331 231.543 523.696 231.989 526.085 232.037C532.022 232.312 537.963 231.575 543.652 229.858C547.127 228.865 550.531 227.64 553.841 226.191C557.359 224.657 560.696 222.817 564.116 221.086C570.413 217.845 577.153 215.541 584.119 214.247C590.247 213.243 596.463 212.882 602.666 213.17C607.937 213.339 613.198 213.735 618.467 213.96C624.293 214.254 630.131 214.202 635.951 213.803C642.807 213.273 649.599 212.115 656.243 210.345C664.615 208.068 672.764 205.042 680.591 201.304C690.871 196.383 700.784 190.732 710.252 184.393C716.145 180.507 721.906 176.429 727.565 172.214C730.679 169.895 733.761 167.536 736.812 165.137C738.73 163.768 740.56 162.281 742.292 160.684C747.062 155.86 751.817 151.021 756.556 146.166L757.902 144.796C758.753 143.93 756.902 143.563 756.276 144.197L756.272 144.198Z" fill="black"/>
<path d="M519.639 230.053C519.639 230.042 519.659 230.029 519.734 230.048L519.715 230.04C519.868 230.035 520.021 230.041 520.174 230.057H520.13L520.15 230.051H520.196C520.707 230.067 521.542 230.189 522.644 230.266L526.679 230.435H526.802L526.916 230.508L526.94 230.524L526.706 230.446C529.765 230.464 532.822 230.255 535.85 229.822C537.518 229.583 539.224 229.268 540.919 228.879C541.767 228.685 542.614 228.479 543.45 228.243C543.87 228.131 544.286 228.014 544.692 227.889L546.027 227.49L545.927 227.514C549.879 226.242 553.699 224.596 557.336 222.599L557.425 222.556L557.868 222.333L558.358 222.044L559.258 221.51L560.731 220.641L562.088 219.778C562.227 219.669 564.7 218.222 568.037 215.668C572.072 212.554 575.823 209.09 579.245 205.316C582.659 201.559 585.826 197.586 588.726 193.422C591.111 190.028 592.586 187.677 592.729 187.762C592.852 187.832 591.634 190.329 589.456 193.9C586.782 198.28 583.772 202.446 580.451 206.361C577.093 210.341 573.369 214 569.328 217.29C567.398 218.854 565.388 220.316 563.304 221.67L561.895 222.525L560.35 223.389L559.403 223.917L558.89 224.203L558.253 224.515L558.342 224.472C554.542 226.436 550.557 228.018 546.444 229.195L546.343 229.219L545.163 229.533C544.728 229.651 544.295 229.756 543.862 229.856C542.995 230.065 542.118 230.248 541.243 230.415C539.489 230.75 537.73 231.004 536.016 231.176C532.911 231.492 529.785 231.546 526.672 231.336L526.528 231.326L526.437 231.258L526.413 231.24L526.648 231.318L522.574 230.834C521.468 230.649 520.641 230.417 520.149 230.289H520.194H520.173H520.137H520.128C519.982 230.246 519.841 230.192 519.703 230.128L519.684 230.121C519.666 230.101 519.651 230.078 519.639 230.053Z" fill="black"/>
<path d="M750.753 134.139C751.917 137.523 753.808 140.611 756.294 143.19C759.074 146.278 762.481 148.74 766.289 150.414C766.736 150.606 768.49 149.896 767.867 149.627C764.147 147.97 760.822 145.545 758.111 142.512C755.675 139.98 753.824 136.947 752.685 133.627C752.534 133.137 750.608 133.677 750.753 134.143V134.139Z" fill="black"/>
<path d="M533.46 263.71C533.336 263.687 533.571 261.4 534.36 257.968C534.813 255.994 535.369 254.046 536.028 252.131C536.746 250.007 537.708 247.774 538.68 245.564L538.624 246.018V245.998L538.58 245.783L538.68 245.548C540.677 240.796 543.354 236.358 546.628 232.371C548.245 230.445 550.014 228.651 551.919 227.007C553.692 225.542 555.57 224.207 557.538 223.014C561.664 220.539 566.054 218.53 570.626 217.024C575.119 215.545 579.709 214.379 584.364 213.536C588.151 212.851 590.693 212.566 590.719 212.71C590.749 212.872 588.261 213.447 584.552 214.39C580.017 215.518 575.547 216.896 571.164 218.519C566.781 220.151 562.583 222.243 558.643 224.759C556.795 225.958 555.032 227.282 553.365 228.722C551.513 230.253 549.78 231.921 548.181 233.713C544.909 237.473 542.178 241.669 540.067 246.179L540.121 245.731V245.751L540.162 246.006L540.062 246.205C538.989 248.391 537.96 250.51 537.146 252.556C536.333 254.603 535.673 256.529 535.158 258.19C534.136 261.509 533.624 263.744 533.46 263.71Z" fill="black"/>
<path d="M522.304 230.525C527.832 231.894 537.139 236.694 539.371 245.861C544.408 234.669 551.658 227.194 561.382 221.959L561.32 221.737L561.294 221.594C550.93 228.025 538.892 231.26 526.692 230.893L526.668 230.876C524.911 230.818 523.442 230.679 522.304 230.525Z" fill="black"/>
<path d="M539.371 246.36H539.325C539.221 246.35 539.123 246.309 539.044 246.241C538.965 246.173 538.909 246.082 538.885 245.981C536.669 236.882 527.344 232.29 522.183 231.007C522.058 230.977 521.95 230.9 521.88 230.792C521.81 230.684 521.785 230.554 521.809 230.428C521.834 230.302 521.905 230.19 522.01 230.115C522.115 230.041 522.244 230.009 522.371 230.028C523.638 230.199 525.129 230.32 526.686 230.375C526.729 230.377 526.771 230.384 526.813 230.396C538.884 230.751 550.791 227.539 561.039 221.164C561.108 221.122 561.187 221.098 561.268 221.093C561.348 221.088 561.429 221.103 561.503 221.136C561.577 221.169 561.642 221.22 561.692 221.283C561.742 221.347 561.776 221.422 561.79 221.501L561.868 221.823C561.899 221.932 561.891 222.048 561.846 222.152C561.802 222.256 561.723 222.342 561.623 222.396C551.594 227.793 544.669 235.314 539.832 246.062C539.792 246.151 539.728 246.227 539.646 246.28C539.564 246.333 539.469 246.36 539.371 246.36ZM526.303 231.361C531.267 233.481 537.26 237.663 539.482 244.428C542.833 237.069 547.971 230.66 554.432 225.782C545.748 229.799 536.238 231.721 526.672 231.391C526.63 231.39 526.588 231.383 526.547 231.371L526.303 231.361Z" fill="black"/>
<path d="M561.294 221.593C560.318 222.192 559.336 222.756 558.367 223.273C559.343 222.798 560.313 222.281 561.32 221.737C571.733 216.082 587.766 212.435 596.032 212.399C584.197 212.542 581.921 207.389 582.953 202.15C576.27 210.161 567.963 217.575 561.294 221.593Z" fill="black"/>
<path d="M558.369 223.773C558.257 223.774 558.147 223.737 558.059 223.669C557.97 223.6 557.907 223.504 557.879 223.396C557.852 223.287 557.862 223.173 557.907 223.071C557.953 222.968 558.031 222.884 558.131 222.832C559.118 222.306 560.094 221.746 561.033 221.168C567.738 217.131 575.984 209.722 582.566 201.833C582.637 201.748 582.735 201.689 582.843 201.665C582.952 201.641 583.065 201.654 583.166 201.701C583.266 201.749 583.348 201.829 583.398 201.928C583.448 202.027 583.463 202.139 583.442 202.248C582.928 204.844 583.335 206.962 584.65 208.537C586.539 210.801 590.29 211.943 595.758 211.903C595.847 211.916 595.938 211.916 596.027 211.903C596.16 211.903 596.288 211.954 596.382 212.047C596.476 212.14 596.53 212.267 596.531 212.399C596.531 212.532 596.48 212.659 596.386 212.753C596.293 212.847 596.166 212.901 596.033 212.902H595.766C587.237 213.013 571.584 216.729 561.554 222.176C560.653 222.661 559.613 223.221 558.581 223.723C558.515 223.755 558.442 223.772 558.369 223.773ZM582.242 203.766C577.464 209.329 572.112 214.376 566.275 218.821C573.859 215.7 581.804 213.536 589.926 212.378C587.607 212.019 585.478 210.89 583.882 209.175C582.652 207.653 582.064 205.713 582.242 203.766Z" fill="black"/>
<path d="M556.003 224.429C555.757 223.889 557.204 222.652 557.348 222.533L558.371 224.529L558.358 224.539L558.068 224.604C557.899 224.639 557.668 224.681 557.425 224.712C556.994 224.807 556.545 224.777 556.13 224.627L555.945 224.611C555.945 224.545 555.964 224.481 556.002 224.426C556.04 224.373 556.093 224.331 556.155 224.308L555.971 224.293C556.098 223.874 556.333 223.496 556.651 223.195C556.811 223.018 556.969 222.861 557.088 222.748C557.207 222.636 557.288 222.566 557.295 222.562L557.31 222.557L558.333 224.553C558.143 224.592 556.248 224.966 556.003 224.429Z" fill="black"/>
<path d="M551.482 273.291C559.112 278.168 571.352 266.422 588.532 257.978C605.475 249.035 622.32 246.205 622.972 237.596C624.231 229.2 600.855 220.096 575.628 232.424C550.417 244.838 543.642 269.016 551.482 273.291Z" fill="white"/>
<path d="M553.244 199.9C554.825 193.857 561.35 186.524 565.753 173.162C570.284 159.427 564.639 150.746 567.436 145.511C570.749 139.311 592.602 155.15 581.956 180.967C569.933 210.132 551.384 207.007 553.244 199.9Z" fill="white"/>
<path d="M492.104 190.589C494.553 187.04 490.028 181.695 495.43 174.031C503.349 162.794 489.305 147.737 478.717 165.726C471.089 185.198 489.331 194.612 492.104 190.589Z" fill="white"/>
<path d="M352.451 865.305C368.638 874.256 387.239 911.299 368.505 928.633C355.045 941.082 343.051 928.267 345.999 913.69C348.948 899.113 362.229 882.108 352.451 865.305Z" fill="white"/>
<path d="M352.344 866.978C359.87 871.225 365.56 879.061 369.473 886.849C373.665 895.187 376.678 905.291 374.662 914.738C373.721 919.293 371.472 923.438 368.216 926.62C364.362 930.34 358.756 933.418 353.501 931.052C349.064 929.055 346.827 924.051 346.67 919.22C346.475 913.533 348.919 907.906 350.918 902.743C353.345 896.472 355.903 890.174 356.796 883.422C357.704 876.75 356.396 869.955 353.09 864.169C352.717 863.505 352.039 863.325 351.56 863.919C351.035 864.565 351.485 865.837 351.823 866.438C359.25 879.642 351.024 893.741 346.714 906.428C344.862 911.877 343.727 917.512 345.121 923.233C345.611 925.65 346.619 927.919 348.071 929.868C349.523 931.817 351.38 933.396 353.501 934.485C363.381 938.863 373.358 928.187 376.137 919.106C379.174 909.158 376.741 898.025 372.747 888.774C368.531 879.008 361.787 868.844 352.569 863.637C351.023 862.767 351.203 866.328 352.344 866.978Z" fill="black"/>
<defs>
<linearGradient id="paint0_linear_1082_0" x1="262.851" y1="719.429" x2="370.145" y2="719.429" gradientUnits="userSpaceOnUse">
<stop offset="0.385417" stop-color="#6633FF"/>
<stop offset="0.75" stop-color="#3366FF"/>
<stop offset="1" stop-color="#0099FF"/>
</linearGradient>
<linearGradient id="paint1_linear_1082_0" x1="307.59" y1="727.371" x2="338.544" y2="727.371" gradientUnits="userSpaceOnUse">
<stop offset="0.385417" stop-color="#6633FF"/>
<stop offset="0.75" stop-color="#3366FF"/>
<stop offset="1" stop-color="#0099FF"/>
</linearGradient>
<linearGradient id="paint2_linear_1082_0" x1="338.99" y1="238.375" x2="448.212" y2="238.375" gradientUnits="userSpaceOnUse">
<stop offset="0.385417" stop-color="#6633FF"/>
<stop offset="0.75" stop-color="#3366FF"/>
<stop offset="1" stop-color="#0099FF"/>
</linearGradient>
<linearGradient id="paint3_linear_1082_0" x1="359.423" y1="251.819" x2="396.415" y2="251.819" gradientUnits="userSpaceOnUse">
<stop offset="0.385417" stop-color="#6633FF"/>
<stop offset="0.75" stop-color="#3366FF"/>
<stop offset="1" stop-color="#0099FF"/>
</linearGradient>
<linearGradient id="paint4_linear_1082_0" x1="326.914" y1="124.457" x2="385.842" y2="124.457" gradientUnits="userSpaceOnUse">
<stop offset="0.385417" stop-color="#6633FF"/>
<stop offset="0.75" stop-color="#3366FF"/>
<stop offset="1" stop-color="#0099FF"/>
</linearGradient>
<linearGradient id="paint5_linear_1082_0" x1="353.198" y1="124.848" x2="365.195" y2="124.848" gradientUnits="userSpaceOnUse">
<stop offset="0.385417" stop-color="#6633FF"/>
<stop offset="0.75" stop-color="#3366FF"/>
<stop offset="1" stop-color="#0099FF"/>
</linearGradient>
<linearGradient id="paint6_linear_1082_0" x1="468.975" y1="127.511" x2="754.763" y2="127.511" gradientUnits="userSpaceOnUse">
<stop offset="0.385417" stop-color="#6633FF"/>
<stop offset="0.75" stop-color="#3366FF"/>
<stop offset="1" stop-color="#0099FF"/>
</linearGradient>
</defs>
</svg>
